# Blender 3.6.5
# www.blender.org
mtllib floor.mtl
o SM_Env_FloorTile_01
v 43.667278 6.509119 85.353539
v 20.012531 6.509119 85.353539
v 43.667278 6.509120 61.676674
v 20.012531 6.509120 61.676674
vn -0.0000 1.0000 -0.0000
vt 0.965869 0.451418
s 1
usemtl PolyAdventureMaterial_Water_01
f 1/1/1 3/1/1 2/1/1
f 2/1/1 3/1/1 4/1/1
o SM_Env_FloorTile_01_1
v 3.600272 -0.340879 -38.564754
v 12.428188 -0.340879 -38.564716
v 3.600241 -0.340878 -31.543352
v 12.428158 -0.340878 -31.543314
vn -0.0000 1.0000 -0.0000
vt 0.965869 0.451418
s 1
usemtl PolyAdventureMaterial_Water_01
f 5/2/2 7/2/2 6/2/2
f 6/2/2 7/2/2 8/2/2
o SM_Env_FloorTile_01_2
v 3.600405 -0.340881 -68.428032
v 12.428322 -0.340881 -68.427994
v 3.600361 -0.340880 -58.573357
v 12.428278 -0.340880 -58.573318
vn -0.0000 1.0000 -0.0000
vt 0.965869 0.451418
s 1
usemtl PolyAdventureMaterial_Water_01
f 9/3/3 11/3/3 10/3/3
f 10/3/3 11/3/3 12/3/3
o SM_Env_FloorTile_01_3
v -8.299653 -0.340880 -55.412987
v 0.528263 -0.340880 -55.412949
v -8.299759 -0.340878 -31.543411
v 0.528157 -0.340878 -31.543373
vn -0.0000 1.0000 -0.0000
vt 0.965869 0.451418
s 1
usemtl PolyAdventureMaterial_Water_01
f 13/4/4 15/4/4 14/4/4
f 14/4/4 15/4/4 16/4/4
o SM_Env_FloorTile_01_4
v 12.370420 -0.340881 -71.713036
v 21.198336 -0.340881 -71.712997
v 12.370241 -0.340878 -31.543327
v 21.198158 -0.340878 -31.543287
vn -0.0000 1.0000 -0.0000
vt 0.965869 0.451418
s 1
usemtl PolyAdventureMaterial_Water_01
f 17/5/5 19/5/5 18/5/5
f 18/5/5 19/5/5 20/5/5
o SM_Env_FloorTile_01_5
v -8.299581 -0.340881 -71.733734
v 0.528336 -0.340881 -71.733696
v -8.299639 -0.340880 -58.603409
v 0.528277 -0.340880 -58.603371
vn -0.0000 1.0000 -0.0000
vt 0.965869 0.451418
s 1
usemtl PolyAdventureMaterial_Water_01
f 21/6/6 23/6/6 22/6/6
f 22/6/6 23/6/6 24/6/6
o SM_Env_FloorTile_01_6
v 3.600348 -0.340880 -55.387634
v 12.428263 -0.340880 -55.387596
v 3.600286 -0.340879 -41.564354
v 12.428202 -0.340879 -41.564316
vn -0.0000 1.0000 -0.0000
vt 0.965869 0.451418
s 1
usemtl PolyAdventureMaterial_Water_01
f 25/7/7 27/7/7 26/7/7
f 26/7/7 27/7/7 28/7/7
o SM_Env_FloorTile_01_7
v -9.052720 -0.640881 7.590260
v -33.043617 -0.640881 7.590260
v -9.052720 -0.640878 -40.793320
v -33.043617 -0.640878 -40.793320
vn -0.0000 1.0000 -0.0000
vt 0.965869 0.451418
s 1
usemtl PolyAdventureMaterial_Water_01
f 29/8/8 31/8/8 30/8/8
f 30/8/8 31/8/8 32/8/8
o SM_Env_FloorTile_01_8
v -31.842720 -0.340879 -7.203341
v -29.737875 -0.340879 -9.341011
v -29.705050 -0.340879 -5.098495
v -27.600204 -0.340879 -7.236165
vn -0.0000 1.0000 -0.0000
vt 0.965869 0.451418
s 1
usemtl PolyAdventureMaterial_Water_01
f 33/9/9 35/9/9 34/9/9
f 34/9/9 35/9/9 36/9/9
o SM_Env_FloorTile_01_9
v -43.370853 -0.340880 -19.472649
v -35.714943 -0.340879 -18.798010
v -44.964455 -0.340879 -1.388227
v -37.308540 -0.340878 -0.713588
vn -0.0000 1.0000 -0.0000
vt 0.965869 0.451418
s 1
usemtl PolyAdventureMaterial_Water_01
f 37/10/10 39/10/10 38/10/10
f 38/10/10 39/10/10 40/10/10
o SM_Env_FloorTile_02
v -31.617781 -0.340879 -10.351879
v -31.497656 -0.340879 -10.404978
v -31.535786 -0.340879 -10.331040
v -31.515686 -0.340879 -10.493177
v -31.704611 -0.340879 -10.553733
v -31.722929 -0.340879 -10.339762
v -32.142014 -0.340879 -10.361601
v -31.773178 -0.340879 -10.235647
v -32.070747 -0.340879 -10.145775
v -32.190750 -0.340879 -10.162803
v -32.016357 -0.340879 -10.041998
v -31.747494 -0.340879 -10.146817
v -31.560944 -0.340879 -10.219746
v -31.471443 -0.340879 -10.011681
v -31.412523 -0.340879 -10.136403
v -32.320232 -0.340879 -10.221426
v -31.330294 -0.340879 -9.872700
v -31.189079 -0.340879 -10.016116
v -31.033873 -0.340879 -9.849256
v -32.280972 -0.340880 -10.430014
v -31.193743 -0.340879 -9.738245
v -30.901121 -0.340879 -9.635344
v -30.962152 -0.340879 -9.865252
v -30.927742 -0.340879 -9.561182
v -31.144197 -0.340879 -9.532562
v -31.015118 -0.340879 -9.312950
v -30.680050 -0.340879 -9.304996
v -31.116352 -0.340879 -9.015508
v -30.726641 -0.340879 -8.884186
v -31.069122 -0.340879 -8.601697
v -31.322048 -0.340879 -8.806605
v -31.303553 -0.340879 -8.572032
v -31.106205 -0.340879 -8.462091
v -31.433405 -0.340879 -8.388437
v -30.611650 -0.340879 -9.528081
v -31.369612 -0.340879 -8.042852
v -30.931034 -0.340879 -8.465733
v -31.559889 -0.340879 -7.982823
v -31.850969 -0.340879 -8.269435
v -30.784876 -0.340879 -8.277682
v -30.783007 -0.340879 -8.512690
v -30.673012 -0.340879 -8.689972
v -31.295498 -0.340879 -7.909624
v -30.527241 -0.340879 -8.830343
v -31.313799 -0.340879 -7.740512
v -31.418652 -0.340879 -7.843755
v -30.255953 -0.340879 -8.814855
v -31.842722 -0.340879 -7.203340
v -30.539417 -0.340879 -9.124798
v -31.577322 -0.340879 -7.870379
v -30.354134 -0.340879 -9.496367
v -30.517803 -0.340879 -9.305748
v -30.256903 -0.340879 -9.618173
v -30.459269 -0.340879 -9.562915
v -29.737877 -0.340879 -9.341009
v -30.279732 -0.340879 -9.734646
v -30.417934 -0.340879 -9.724817
v -30.275047 -0.340879 -9.869932
v -30.366005 -0.340879 -9.777556
v -31.110872 -0.340879 -10.095546
v -30.812218 -0.340879 -10.398854
v -31.132675 -0.340879 -10.380862
v -31.277014 -0.340879 -10.170139
v -31.279741 -0.340879 -10.589655
v -31.205652 -0.340879 -10.359800
v -31.394096 -0.340879 -10.295027
v -31.404625 -0.340879 -10.376625
v -31.336815 -0.340879 -10.444552
v -31.425737 -0.340879 -10.703558
v -31.349390 -0.340879 -10.927777
v -31.876282 -0.340880 -10.839743
v -31.635063 -0.340879 -10.731191
v -31.903044 -0.340879 -10.689405
v -31.968704 -0.340880 -10.969893
v -31.954702 -0.340880 -10.764463
v -31.875546 -0.340880 -11.445855
v -32.181278 -0.340880 -10.893723
v -32.038570 -0.340879 -10.570101
v -32.097370 -0.340880 -10.783327
v -32.187447 -0.340880 -10.716690
v -32.393623 -0.340880 -10.919700
v -32.234291 -0.340880 -10.762817
v -32.582077 -0.340880 -10.391650
v -32.922546 -0.340880 -10.382527
v -32.436718 -0.340880 -10.318100
v -32.421936 -0.340879 -10.170113
v -32.739983 -0.340880 -10.202766
v -32.809467 -0.340879 -10.002233
v -32.689777 -0.340880 -10.153332
v -32.811852 -0.340879 -9.829683
v -32.789566 -0.340879 -9.677168
v -32.739197 -0.340879 -9.841196
v -32.962788 -0.340879 -9.544332
v -33.451469 -0.340880 -9.845357
v -32.925312 -0.340879 -9.327280
v -33.000027 -0.340879 -9.251397
v -32.834793 -0.340879 -9.238150
v -33.133160 -0.340879 -9.358554
v -33.297485 -0.340879 -9.258588
v -33.286026 -0.340879 -9.131931
v -33.980392 -0.340880 -9.308185
v -33.454235 -0.340879 -8.790108
v -33.133724 -0.340879 -9.115615
v -32.917065 -0.340879 -8.261185
v -32.926842 -0.340879 -8.949744
v -33.001678 -0.340879 -8.951912
v -32.986919 -0.340879 -8.713153
v -32.935528 -0.340879 -8.641056
v -32.759434 -0.340879 -9.163948
v -32.883102 -0.340879 -8.876801
v -32.843124 -0.340879 -8.812710
v -32.794365 -0.340879 -8.813076
v -32.714298 -0.340879 -9.310855
v -32.493252 -0.340879 -9.204131
v -32.675980 -0.340879 -9.469068
v -32.590504 -0.340879 -9.494112
v -32.703156 -0.340879 -9.108534
v -32.484600 -0.340879 -8.893334
v -32.701008 -0.340879 -8.796660
v -32.388138 -0.340879 -8.798357
v -32.657631 -0.340879 -8.524662
v -32.276680 -0.340879 -8.517901
v -32.347878 -0.340879 -8.320212
v -32.053799 -0.340879 -8.194331
v -32.020344 -0.340879 -8.097419
v -32.024147 -0.340879 -7.975713
v -32.201778 -0.340879 -7.913154
v -32.432175 -0.340879 -8.177131
v -32.256466 -0.340879 -7.857613
v -32.754993 -0.340879 -8.425782
v -31.729763 -0.340879 -7.977457
v -31.883352 -0.340879 -7.942188
v -31.796795 -0.340879 -7.853209
v -32.023006 -0.340879 -7.754338
v -32.379894 -0.340879 -7.732263
v -32.806725 -0.340879 -8.687834
v -32.849083 -0.340879 -8.708971
v -32.396389 -0.340879 -9.864450
v -32.686527 -0.340879 -10.003600
v -32.627029 -0.340879 -10.091550
v -32.219967 -0.340879 -10.043625
v -31.877472 -0.340879 -8.448338
v -31.716801 -0.340879 -8.405695
v -31.525024 -0.340879 -8.499666
v -31.453266 -0.340879 -8.673339
v -31.859217 -0.340879 -9.335527
v -31.799812 -0.340879 -8.522362
v -31.595362 -0.340879 -8.714097
v -31.699617 -0.340879 -8.577484
v -31.399050 -0.340879 -9.802872
v -31.641047 -0.340879 -9.977806
v -31.511925 -0.340879 -9.826944
v -31.939669 -0.340879 -9.956837
v -32.205471 -0.340879 -9.864394
v -32.275047 -0.340879 -9.744970
v -31.730167 -0.340879 -9.901835
v -32.117970 -0.340879 -9.820233
v -32.231541 -0.340879 -9.702133
v -30.664490 -0.340879 -8.793517
v -31.820604 -0.340879 -10.582890
vn -0.0000 1.0000 -0.0000
vt 0.965869 0.451418
vt 0.965869 0.451418
vt 0.942046 0.456171
vt 0.967990 0.502381
s 1
usemtl PolyAdventureMaterial_01
f 41/11/11 43/11/11 42/11/11
f 44/11/11 41/11/11 42/11/11
f 45/11/11 41/11/11 44/11/11
f 41/11/11 45/11/11 46/11/11
f 45/11/11 47/11/11 46/11/11
f 46/11/11 47/11/11 48/11/11
f 47/11/11 49/11/11 48/11/11
f 50/11/11 49/11/11 47/11/11
f 49/11/11 51/11/11 48/11/11
f 51/11/11 52/11/11 48/11/11
f 53/11/11 48/11/11 52/11/11
f 54/11/11 53/11/11 52/11/11
f 53/11/11 54/11/11 55/11/11
f 50/11/11 47/11/11 56/11/11
f 55/11/11 54/11/11 57/11/11
f 58/11/11 55/11/11 57/11/11
f 58/11/11 57/11/11 59/11/11
f 47/11/11 60/11/11 56/11/11
f 57/11/11 61/11/11 59/11/11
f 61/11/11 62/11/11 59/11/11
f 59/11/11 62/11/11 63/11/11
f 64/11/11 62/11/11 61/11/11
f 61/11/11 65/11/11 64/11/11
f 65/11/11 66/11/11 64/11/11
f 67/11/11 64/11/11 66/11/11
f 68/11/11 67/11/11 66/11/11
f 67/11/11 68/11/11 69/11/11
f 69/11/11 68/11/11 70/11/11
f 70/11/11 68/11/11 71/11/11
f 71/11/11 72/11/11 70/11/11
f 70/11/11 72/11/11 73/11/11
f 72/11/11 74/11/11 73/11/11
f 63/11/11 62/11/11 75/11/11
f 76/11/11 73/11/11 74/11/11
f 77/11/11 73/11/11 76/11/11
f 78/11/11 76/11/11 74/11/11
f 79/11/11 78/11/11 74/11/11
f 80/11/11 77/11/11 76/11/11
f 81/11/11 77/11/11 80/11/11
f 82/11/11 81/11/11 80/11/11
f 83/11/11 80/11/11 76/11/11
f 84/11/11 82/11/11 80/11/11
f 85/11/11 80/11/11 83/11/11
f 86/11/11 85/11/11 83/11/11
f 87/11/11 84/11/11 80/11/11
f 85/11/11 86/11/11 88/11/11
f 89/11/11 84/11/11 87/11/11
f 86/11/11 90/11/11 88/11/11
f 87/11/11 91/11/11 89/11/11
f 89/11/11 91/11/11 92/11/11
f 93/11/11 91/11/11 87/11/11
f 91/11/11 94/11/11 92/11/11
f 95/11/11 93/11/11 87/11/11
f 75/11/11 92/11/11 94/11/11
f 96/11/11 93/11/11 95/11/11
f 97/11/11 75/11/11 94/11/11
f 98/11/11 96/11/11 95/11/11
f 97/11/11 63/11/11 75/11/11
f 99/11/11 63/11/11 97/11/11
f 99/11/11 96/11/11 98/11/11
f 98/11/11 63/11/11 99/11/11
f 100/11/11 63/11/11 98/11/11
f 101/11/11 100/11/11 98/11/11
f 101/11/11 102/11/11 100/11/11
f 100/11/11 102/11/11 103/11/11
f 104/11/11 102/11/11 101/11/11
f 102/11/11 105/11/11 103/11/11
f 103/11/11 105/11/11 106/11/11
f 106/11/11 105/11/11 107/11/11
f 105/11/11 108/11/11 107/11/11
f 109/11/11 104/11/11 101/11/11
f 110/11/11 109/11/11 101/11/11
f 110/11/11 111/12/11 109/11/11
f 109/11/11 111/12/11 112/11/11
f 112/11/11 111/12/11 113/11/11
f 114/12/11 111/12/11 110/11/11
f 111/12/11 115/11/11 113/11/11
f 116/11/11 114/12/11 110/11/11
f 117/12/11 114/12/11 116/11/11
f 115/11/11 118/11/11 113/11/11
f 119/12/11 118/11/11 115/11/11
f 120/11/11 118/11/11 119/12/11
f 121/11/11 117/12/11 116/11/11
f 118/11/11 120/11/11 60/11/11
f 122/12/11 117/12/11 121/11/11
f 60/11/11 120/11/11 122/12/11
f 121/11/11 123/11/11 122/12/11
f 124/11/11 123/11/11 121/11/11
f 125/11/11 60/11/11 122/12/11
f 123/11/11 125/11/11 122/12/11
f 56/11/11 60/11/11 125/11/11
f 126/11/11 56/11/11 125/11/11
f 127/11/11 123/11/11 124/11/11
f 128/11/11 127/11/11 124/11/11
f 129/11/11 127/11/11 128/11/11
f 130/11/11 128/11/11 124/11/11
f 131/12/11 130/11/11 124/11/11
f 132/11/11 130/11/11 131/12/11
f 133/11/11 131/12/11 124/11/11
f 134/11/11 133/11/11 124/11/11
f 135/11/11 133/11/11 134/11/11
f 135/11/11 134/11/11 136/11/11
f 135/11/11 136/11/11 137/11/11
f 138/11/11 136/11/11 134/11/11
f 139/11/11 138/11/11 134/11/11
f 140/11/11 139/11/11 134/11/11
f 141/11/11 140/11/11 134/11/11
f 142/11/11 140/11/11 141/11/11
f 143/11/11 140/11/11 142/11/11
f 142/11/11 144/11/11 143/11/11
f 137/11/11 136/11/11 145/11/11
f 136/11/11 143/11/11 145/11/11
f 145/11/11 143/11/11 146/11/11
f 143/11/11 147/11/11 146/11/11
f 144/11/11 147/11/11 143/11/11
f 148/11/11 147/11/11 144/11/11
f 149/11/11 137/11/11 145/11/11
f 150/11/11 149/11/11 145/11/11
f 151/11/11 149/11/11 150/11/11
f 152/11/11 149/11/11 151/11/11
f 137/11/11 149/11/11 153/11/11
f 153/11/11 149/11/11 154/11/11
f 155/11/11 153/11/11 154/11/11
f 156/11/11 155/11/11 154/11/11
f 149/11/11 157/11/11 154/11/11
f 158/11/11 154/11/11 157/11/11
f 157/11/11 159/11/11 158/11/11
f 159/11/11 160/11/11 158/11/11
f 161/11/11 160/11/11 159/11/11
f 160/11/11 161/11/11 162/11/11
f 161/11/11 163/11/11 162/11/11
f 164/11/11 162/11/11 163/11/11
f 79/11/11 162/11/11 164/11/11
f 165/11/11 79/11/11 164/11/11
f 79/11/11 165/11/11 78/11/11
f 165/11/11 166/11/11 78/11/11
f 167/11/11 166/11/11 165/11/11
f 165/11/11 168/11/11 167/11/11
f 169/11/11 167/11/11 168/11/11
f 170/11/11 169/11/11 168/11/11
f 78/11/11 166/11/11 171/11/11
f 166/11/11 172/11/11 171/11/11
f 90/11/11 78/11/11 171/11/11
f 173/11/11 90/11/11 171/11/11
f 88/11/11 90/11/11 173/11/11
f 174/12/11 88/11/11 173/11/11
f 169/11/11 88/11/11 174/12/11
f 175/11/11 88/11/11 169/11/11
f 175/11/11 169/11/11 144/11/11
f 144/11/11 169/11/11 170/11/11
f 170/11/11 148/11/11 144/11/11
f 176/11/11 148/11/11 170/11/11
f 177/11/11 148/11/11 176/11/11
f 149/13/11 152/13/11 157/13/11
f 157/13/11 152/13/11 159/13/11
f 152/13/11 176/13/11 159/13/11
f 161/13/11 159/13/11 176/13/11
f 170/13/11 161/13/11 176/13/11
f 176/13/11 152/13/11 177/13/11
f 170/13/11 168/13/11 161/13/11
f 168/13/11 163/13/11 161/13/11
f 164/13/11 163/13/11 168/13/11
f 165/13/11 164/13/11 168/13/11
f 152/13/11 151/13/11 177/13/11
f 151/13/11 147/13/11 177/13/11
f 147/13/11 148/13/11 177/13/11
f 150/13/11 147/13/11 151/13/11
f 145/13/11 147/13/11 150/13/11
f 146/13/11 147/13/11 145/13/11
f 137/14/11 153/14/11 135/14/11
f 153/14/11 155/14/11 135/14/11
f 135/14/11 155/14/11 178/14/11
f 178/14/11 155/14/11 156/14/11
f 135/14/11 178/14/11 133/14/11
f 133/14/11 178/14/11 131/14/11
f 131/14/11 178/14/11 132/14/11
f 132/14/11 178/14/11 179/14/11
f 178/14/11 180/14/11 179/14/11
f 180/14/11 178/14/11 126/14/11
f 178/14/11 181/14/11 126/14/11
f 126/14/11 181/14/11 56/14/11
f 50/14/11 56/14/11 181/14/11
f 181/14/11 49/14/11 50/14/11
f 51/14/11 49/14/11 181/14/11
f 160/13/11 162/13/11 79/13/11
f 79/13/11 182/13/11 160/13/11
f 183/13/11 182/13/11 79/13/11
f 79/13/11 74/13/11 183/13/11
f 183/13/11 74/13/11 184/13/11
f 74/13/11 72/13/11 184/13/11
f 185/13/11 184/13/11 72/13/11
f 71/13/11 185/13/11 72/13/11
f 160/13/11 182/13/11 186/13/11
f 71/13/11 186/13/11 185/13/11
f 160/13/11 186/13/11 158/13/11
f 182/13/11 187/13/11 186/13/11
f 186/13/11 188/13/11 185/13/11
f 187/13/11 189/13/11 186/13/11
f 189/13/11 188/13/11 186/13/11
f 71/13/11 68/13/11 186/13/11
f 186/13/11 68/13/11 190/13/11
f 68/13/11 66/13/11 190/13/11
f 66/13/11 65/13/11 190/13/11
f 65/13/11 61/13/11 190/13/11
f 61/13/11 57/13/11 190/13/11
f 54/13/11 190/13/11 57/13/11
f 158/13/11 186/13/11 154/13/11
f 191/13/11 190/13/11 54/13/11
f 52/13/11 191/13/11 54/13/11
f 190/13/11 192/13/11 186/13/11
f 193/13/11 191/13/11 52/13/11
f 51/13/11 193/13/11 52/13/11
f 181/13/11 193/13/11 51/13/11
f 194/13/11 193/13/11 181/13/11
f 178/13/11 194/13/11 181/13/11
f 195/13/11 194/13/11 178/13/11
f 178/13/11 156/13/11 195/13/11
f 192/13/11 196/13/11 186/13/11
f 196/13/11 197/13/11 186/13/11
f 195/13/11 156/13/11 198/13/11
f 197/13/11 198/13/11 186/13/11
f 156/13/11 154/13/11 198/13/11
f 186/13/11 198/13/11 154/13/11
f 62/13/11 64/13/11 75/13/11
f 75/13/11 64/13/11 67/13/11
f 67/13/11 92/13/11 75/13/11
f 89/13/11 92/13/11 67/13/11
f 67/13/11 69/13/11 89/13/11
f 89/13/11 69/13/11 199/13/11
f 199/13/11 69/13/11 70/13/11
f 77/13/11 199/13/11 70/13/11
f 70/13/11 73/13/11 77/13/11
f 102/13/11 104/13/11 105/13/11
f 105/13/11 104/13/11 108/13/11
f 44/13/11 108/13/11 104/13/11
f 109/13/11 44/13/11 104/13/11
f 44/13/11 107/13/11 108/13/11
f 42/13/11 107/13/11 44/13/11
f 42/13/11 43/13/11 107/13/11
f 45/13/11 44/13/11 109/13/11
f 107/13/11 43/13/11 106/13/11
f 200/13/11 45/13/11 109/13/11
f 109/13/11 112/13/11 200/13/11
f 112/13/11 113/13/11 200/13/11
f 200/13/11 47/13/11 45/13/11
f 113/13/11 118/13/11 200/13/11
f 118/13/11 47/13/11 200/13/11
f 60/13/11 47/13/11 118/13/11
f 106/13/11 43/13/11 53/13/11
f 41/13/11 53/13/11 43/13/11
f 41/13/11 48/13/11 53/13/11
f 46/13/11 48/13/11 41/13/11
f 55/13/11 106/13/11 53/13/11
f 103/13/11 106/13/11 55/13/11
f 58/13/11 103/13/11 55/13/11
f 100/13/11 103/13/11 58/13/11
f 58/13/11 59/13/11 100/13/11
f 100/13/11 59/13/11 63/13/11
f 83/13/11 76/13/11 86/13/11
f 86/13/11 76/13/11 78/13/11
f 78/13/11 90/13/11 86/13/11
f 127/13/11 129/13/11 123/13/11
f 123/13/11 129/13/11 125/13/11
f 125/13/11 129/13/11 126/13/11
f 180/13/11 126/13/11 129/13/11
f 129/13/11 179/13/11 180/13/11
f 128/13/11 179/13/11 129/13/11
f 132/13/11 179/13/11 128/13/11
f 130/13/11 132/13/11 128/13/11
f 136/13/11 138/13/11 143/13/11
f 138/13/11 139/13/11 143/13/11
f 139/13/11 140/13/11 143/13/11
f 183/11/11 184/11/11 185/11/11
f 185/11/11 188/11/11 183/11/11
f 188/11/11 189/11/11 183/11/11
f 189/11/11 187/11/11 183/11/11
f 182/11/11 183/11/11 187/11/11
f 190/11/11 191/11/11 192/11/11
f 192/11/11 191/11/11 196/11/11
f 191/11/11 193/11/11 196/11/11
f 196/11/11 193/11/11 197/11/11
f 193/11/11 194/11/11 197/11/11
f 197/11/11 194/11/11 198/11/11
f 194/11/11 195/11/11 198/11/11
f 91/14/11 93/14/11 94/14/11
f 94/14/11 93/14/11 97/14/11
f 93/14/11 96/14/11 97/14/11
f 97/14/11 96/14/11 99/14/11
f 89/14/11 199/14/11 84/14/11
f 84/14/11 199/14/11 82/14/11
f 81/14/11 82/14/11 199/14/11
f 77/14/11 81/14/11 199/14/11
f 171/14/11 172/14/11 173/14/11
f 173/14/11 172/14/11 174/14/11
f 174/14/11 172/14/11 166/14/11
f 167/14/11 174/14/11 166/14/11
f 169/14/11 174/14/11 167/14/11
f 120/14/11 119/14/11 122/14/11
f 122/14/11 119/14/11 117/14/11
f 117/14/11 119/14/11 114/14/11
f 119/14/11 115/14/11 114/14/11
f 115/14/11 111/14/11 114/14/11
o SM_Env_FloorTile_01_10
v -34.011703 -0.340880 -13.549212
v -31.906857 -0.340881 -15.686881
v -27.600206 -0.340879 -7.236166
v -25.495361 -0.340879 -9.373837
vn -0.0000 1.0000 -0.0000
vt 0.965869 0.451418
s 1
usemtl PolyAdventureMaterial_Water_01
f 201/15/12 203/15/12 202/15/12
f 202/15/12 203/15/12 204/15/12
o SM_Env_FloorTile_01_11
v -38.221394 -0.340880 -9.273872
v -36.116547 -0.340881 -11.411542
v -31.809896 -0.340879 -2.960827
v -29.705051 -0.340879 -5.098497
vn -0.0000 1.0000 -0.0000
vt 0.965869 0.451418
s 1
usemtl PolyAdventureMaterial_Water_01
f 205/16/13 207/16/13 206/16/13
f 206/16/13 207/16/13 208/16/13
o SM_Env_FloorTile_01_12
v -36.118061 -0.340880 -11.413031
v -34.013214 -0.340880 -13.550701
v -33.980389 -0.340879 -9.308186
v -31.875544 -0.340879 -11.445855
vn -0.0000 1.0000 -0.0000
vt 0.965869 0.451418
s 1
usemtl PolyAdventureMaterial_Water_01
f 209/17/14 211/17/14 210/17/14
f 210/17/14 211/17/14 212/17/14
