# Blender 3.6.5
# www.blender.org
mtllib ray.mtl
o Cylinder
v 0.000000 3.926853 -0.074637
v 0.000000 6.326854 -0.000000
v 0.014561 3.926853 -0.073203
v 0.028562 3.926853 -0.068956
v 0.041466 3.926853 -0.062059
v 0.052776 3.926853 -0.052777
v 0.062058 3.926853 -0.041466
v 0.068956 3.926853 -0.028563
v 0.073203 3.926853 -0.014561
v 0.074637 3.926853 -0.000000
v 0.073203 3.926853 0.014561
v 0.068956 3.926853 0.028562
v 0.062058 3.926853 0.041466
v 0.052776 3.926853 0.052776
v 0.041466 3.926853 0.062058
v 0.028562 3.926853 0.068955
v 0.014561 3.926853 0.073203
v 0.000000 3.926853 0.074637
v -0.014561 3.926853 0.073203
v -0.028562 3.926853 0.068955
v -0.041466 3.926853 0.062058
v -0.052776 3.926853 0.052776
v -0.062058 3.926853 0.041466
v -0.068956 3.926853 0.028562
v -0.073203 3.926853 0.014561
v -0.074637 3.926853 -0.000000
v -0.073203 3.926853 -0.014561
v -0.068956 3.926853 -0.028563
v -0.062058 3.926853 -0.041466
v -0.052776 3.926853 -0.052777
v -0.041466 3.926853 -0.062059
v -0.028562 3.926853 -0.068956
v -0.014561 3.926853 -0.073203
v 0.000000 3.926853 -0.150000
v 0.029264 3.926853 -0.147118
v 0.057402 3.926853 -0.138582
v 0.083336 3.926853 -0.124721
v 0.106066 3.926853 -0.106066
v 0.124721 3.926853 -0.083336
v 0.138582 3.926853 -0.057403
v 0.147118 3.926853 -0.029264
v 0.150000 3.926853 -0.000000
v 0.147118 3.926853 0.029263
v 0.138582 3.926853 0.057402
v 0.124721 3.926853 0.083335
v 0.106066 3.926853 0.106066
v 0.083336 3.926854 0.124720
v 0.057402 3.926854 0.138582
v 0.029264 3.926854 0.147117
v 0.000000 3.926854 0.150000
v -0.029264 3.926854 0.147117
v -0.057402 3.926854 0.138582
v -0.083336 3.926854 0.124720
v -0.106066 3.926853 0.106066
v -0.124721 3.926853 0.083335
v -0.138582 3.926853 0.057402
v -0.147118 3.926853 0.029263
v -0.150000 3.926853 -0.000000
v -0.147118 3.926853 -0.029264
v -0.138582 3.926853 -0.057403
v -0.124721 3.926853 -0.083336
v -0.106066 3.926853 -0.106066
v -0.083336 3.926853 -0.124721
v -0.057402 3.926853 -0.138582
v -0.029264 3.926853 -0.147118
v 0.000000 -0.000418 -0.074637
v 0.014561 -0.000418 -0.073203
v 0.028562 -0.000418 -0.068956
v 0.041466 -0.000418 -0.062058
v 0.052776 -0.000418 -0.052776
v 0.062058 -0.000418 -0.041466
v 0.068956 -0.000418 -0.028562
v 0.073203 -0.000418 -0.014561
v 0.074637 -0.000418 0.000000
v 0.073203 -0.000418 0.014561
v 0.068956 -0.000418 0.028562
v 0.062058 -0.000418 0.041466
v 0.052776 -0.000418 0.052776
v 0.041466 -0.000418 0.062058
v 0.028562 -0.000418 0.068956
v 0.014561 -0.000418 0.073203
v 0.000000 -0.000418 0.074637
v -0.014561 -0.000418 0.073203
v -0.028562 -0.000418 0.068956
v -0.041466 -0.000418 0.062058
v -0.052776 -0.000418 0.052776
v -0.062058 -0.000418 0.041466
v -0.068956 -0.000418 0.028562
v -0.073203 -0.000418 0.014561
v -0.074637 -0.000418 0.000000
v -0.073203 -0.000418 -0.014561
v -0.068956 -0.000418 -0.028562
v -0.062058 -0.000418 -0.041466
v -0.052776 -0.000418 -0.052776
v -0.041466 -0.000418 -0.062058
v -0.028562 -0.000418 -0.068956
v -0.014561 -0.000418 -0.073203
vn 0.0978 0.0621 -0.9933
vn 0.2897 0.0621 -0.9551
vn 0.4705 0.0621 -0.8802
vn 0.6332 0.0621 -0.7715
vn 0.7715 0.0621 -0.6332
vn 0.8802 0.0621 -0.4705
vn 0.9551 0.0621 -0.2897
vn 0.9933 0.0621 -0.0978
vn 0.9933 0.0621 0.0978
vn 0.9551 0.0621 0.2897
vn 0.8802 0.0621 0.4705
vn 0.7715 0.0621 0.6332
vn 0.6332 0.0621 0.7715
vn 0.4705 0.0621 0.8802
vn 0.2897 0.0621 0.9551
vn 0.0978 0.0621 0.9933
vn -0.0978 0.0621 0.9933
vn -0.2897 0.0621 0.9551
vn -0.4705 0.0621 0.8802
vn -0.6332 0.0621 0.7715
vn -0.7715 0.0621 0.6332
vn -0.8802 0.0621 0.4705
vn -0.9551 0.0621 0.2897
vn -0.9933 0.0621 0.0978
vn -0.9933 0.0621 -0.0978
vn -0.9551 0.0621 -0.2897
vn -0.8802 0.0621 -0.4705
vn -0.7715 0.0621 -0.6332
vn -0.6332 0.0621 -0.7715
vn -0.4705 0.0621 -0.8802
vn -0.2897 0.0621 -0.9551
vn -0.0978 0.0621 -0.9933
vn 0.7730 -0.0000 0.6344
vn -0.0000 -1.0000 -0.0000
vn -0.9569 -0.0000 -0.2903
vn 0.6344 -0.0000 0.7730
vn -0.8819 -0.0000 -0.4714
vn 0.4714 -0.0000 0.8819
vn 0.0980 -0.0000 -0.9952
vn -0.7730 -0.0000 -0.6344
vn 0.2903 -0.0000 0.9569
vn 0.2903 -0.0000 -0.9569
vn -0.6344 -0.0000 -0.7730
vn 0.0980 -0.0000 0.9952
vn 0.4714 -0.0000 -0.8819
vn -0.4714 -0.0000 -0.8819
vn -0.0980 -0.0000 0.9952
vn 0.6344 -0.0000 -0.7730
vn -0.2903 -0.0000 -0.9569
vn -0.2903 -0.0000 0.9569
vn 0.7730 -0.0000 -0.6344
vn -0.0980 -0.0000 -0.9952
vn -0.4714 -0.0000 0.8819
vn 0.8819 -0.0000 -0.4714
vn -0.6344 -0.0000 0.7730
vn 0.9569 -0.0000 -0.2903
vn -0.7730 -0.0000 0.6344
vn 0.9952 -0.0000 -0.0980
vn -0.8819 -0.0000 0.4714
vn 0.9952 -0.0000 0.0980
vn -0.9569 -0.0000 0.2903
vn 0.9569 -0.0000 0.2903
vn -0.9952 -0.0000 0.0980
vn 0.8819 -0.0000 0.4714
vn -0.9952 -0.0000 -0.0980
vt 1.000000 0.500000
vt 0.968750 1.000000
vt 0.968750 0.500000
vt 0.937500 1.000000
vt 0.937500 0.500000
vt 0.906250 1.000000
vt 0.906250 0.500000
vt 0.875000 1.000000
vt 0.875000 0.500000
vt 0.843750 1.000000
vt 0.843750 0.500000
vt 0.812500 1.000000
vt 0.812500 0.500000
vt 0.781250 1.000000
vt 0.781250 0.500000
vt 0.750000 1.000000
vt 0.750000 0.500000
vt 0.718750 1.000000
vt 0.718750 0.500000
vt 0.687500 1.000000
vt 0.687500 0.500000
vt 0.656250 1.000000
vt 0.656250 0.500000
vt 0.625000 1.000000
vt 0.625000 0.500000
vt 0.593750 1.000000
vt 0.593750 0.500000
vt 0.562500 1.000000
vt 0.562500 0.500000
vt 0.531250 1.000000
vt 0.531250 0.500000
vt 0.500000 1.000000
vt 0.500000 0.500000
vt 0.468750 1.000000
vt 0.468750 0.500000
vt 0.437500 1.000000
vt 0.437500 0.500000
vt 0.406250 1.000000
vt 0.406250 0.500000
vt 0.375000 1.000000
vt 0.375000 0.500000
vt 0.343750 1.000000
vt 0.343750 0.500000
vt 0.312500 1.000000
vt 0.312500 0.500000
vt 0.281250 1.000000
vt 0.281250 0.500000
vt 0.250000 1.000000
vt 0.250000 0.500000
vt 0.218750 1.000000
vt 0.218750 0.500000
vt 0.187500 1.000000
vt 0.187500 0.500000
vt 0.156250 1.000000
vt 0.156250 0.500000
vt 0.125000 1.000000
vt 0.125000 0.500000
vt 0.093750 1.000000
vt 0.093750 0.500000
vt 0.062500 1.000000
vt 0.062500 0.500000
vt 0.031250 1.000000
vt 0.031250 0.500000
vt 0.000000 1.000000
vt 0.000000 0.500000
vt 0.849293 0.183654
vt 0.834442 0.165558
vt 0.773297 0.367125
vt 0.750000 0.369419
vt 0.750000 0.490000
vt 0.796822 0.485388
vt 0.795700 0.360329
vt 0.841844 0.471731
vt 0.816346 0.349294
vt 0.883337 0.449553
vt 0.834442 0.334442
vt 0.919706 0.419706
vt 0.849293 0.316346
vt 0.949553 0.383337
vt 0.860329 0.295700
vt 0.971731 0.341844
vt 0.867125 0.273298
vt 0.985388 0.296822
vt 0.869419 0.250000
vt 0.990000 0.250000
vt 0.867125 0.226702
vt 0.985388 0.203178
vt 0.860329 0.204300
vt 0.971731 0.158156
vt 0.949553 0.116663
vt 0.919706 0.080294
vt 0.816346 0.150706
vt 0.883337 0.050447
vt 0.795700 0.139671
vt 0.841844 0.028269
vt 0.773297 0.132875
vt 0.796822 0.014612
vt 0.750000 0.130581
vt 0.750000 0.010000
vt 0.726702 0.132875
vt 0.703178 0.014612
vt 0.704300 0.139671
vt 0.658156 0.028269
vt 0.683654 0.150706
vt 0.616663 0.050447
vt 0.665558 0.165558
vt 0.580294 0.080294
vt 0.650706 0.183654
vt 0.550447 0.116663
vt 0.639671 0.204300
vt 0.528269 0.158156
vt 0.632875 0.226702
vt 0.514612 0.203178
vt 0.630581 0.250000
vt 0.510000 0.250000
vt 0.632875 0.273298
vt 0.514612 0.296822
vt 0.639671 0.295700
vt 0.528269 0.341844
vt 0.650706 0.316346
vt 0.550447 0.383337
vt 0.665558 0.334442
vt 0.580294 0.419706
vt 0.683654 0.349294
vt 0.616663 0.449553
vt 0.704300 0.360329
vt 0.658156 0.471731
vt 0.726702 0.367125
vt 0.703178 0.485388
s 0
usemtl None
f 34/1/1 2/2/1 35/3/1
f 35/3/2 2/4/2 36/5/2
f 36/5/3 2/6/3 37/7/3
f 37/7/4 2/8/4 38/9/4
f 38/9/5 2/10/5 39/11/5
f 39/11/6 2/12/6 40/13/6
f 40/13/7 2/14/7 41/15/7
f 41/15/8 2/16/8 42/17/8
f 42/17/9 2/18/9 43/19/9
f 43/19/10 2/20/10 44/21/10
f 44/21/11 2/22/11 45/23/11
f 45/23/12 2/24/12 46/25/12
f 46/25/13 2/26/13 47/27/13
f 47/27/14 2/28/14 48/29/14
f 48/29/15 2/30/15 49/31/15
f 49/31/16 2/32/16 50/33/16
f 50/33/17 2/34/17 51/35/17
f 51/35/18 2/36/18 52/37/18
f 52/37/19 2/38/19 53/39/19
f 53/39/20 2/40/20 54/41/20
f 54/41/21 2/42/21 55/43/21
f 55/43/22 2/44/22 56/45/22
f 56/45/23 2/46/23 57/47/23
f 57/47/24 2/48/24 58/49/24
f 58/49/25 2/50/25 59/51/25
f 59/51/26 2/52/26 60/53/26
f 60/53/27 2/54/27 61/55/27
f 61/55/28 2/56/28 62/57/28
f 62/57/29 2/58/29 63/59/29
f 63/59/30 2/60/30 64/61/30
f 64/61/31 2/62/31 65/63/31
f 65/63/32 2/64/32 34/65/32
f 13/66/33 14/67/33 78/67/33 77/66/33
f 3/68/34 1/69/34 34/70/34 35/71/34
f 4/72/34 3/68/34 35/71/34 36/73/34
f 5/74/34 4/72/34 36/73/34 37/75/34
f 6/76/34 5/74/34 37/75/34 38/77/34
f 7/78/34 6/76/34 38/77/34 39/79/34
f 8/80/34 7/78/34 39/79/34 40/81/34
f 9/82/34 8/80/34 40/81/34 41/83/34
f 10/84/34 9/82/34 41/83/34 42/85/34
f 11/86/34 10/84/34 42/85/34 43/87/34
f 12/88/34 11/86/34 43/87/34 44/89/34
f 13/66/34 12/88/34 44/89/34 45/90/34
f 14/67/34 13/66/34 45/90/34 46/91/34
f 15/92/34 14/67/34 46/91/34 47/93/34
f 16/94/34 15/92/34 47/93/34 48/95/34
f 17/96/34 16/94/34 48/95/34 49/97/34
f 18/98/34 17/96/34 49/97/34 50/99/34
f 19/100/34 18/98/34 50/99/34 51/101/34
f 20/102/34 19/100/34 51/101/34 52/103/34
f 21/104/34 20/102/34 52/103/34 53/105/34
f 22/106/34 21/104/34 53/105/34 54/107/34
f 23/108/34 22/106/34 54/107/34 55/109/34
f 24/110/34 23/108/34 55/109/34 56/111/34
f 25/112/34 24/110/34 56/111/34 57/113/34
f 26/114/34 25/112/34 57/113/34 58/115/34
f 27/116/34 26/114/34 58/115/34 59/117/34
f 28/118/34 27/116/34 59/117/34 60/119/34
f 29/120/34 28/118/34 60/119/34 61/121/34
f 30/122/34 29/120/34 61/121/34 62/123/34
f 31/124/34 30/122/34 62/123/34 63/125/34
f 32/126/34 31/124/34 63/125/34 64/127/34
f 33/128/34 32/126/34 64/127/34 65/129/34
f 1/69/34 33/128/34 65/129/34 34/70/34
f 66/69/34 67/68/34 68/72/34 69/74/34 70/76/34 71/78/34 72/80/34 73/82/34 74/84/34 75/86/34 76/88/34 77/66/34 78/67/34 79/92/34 80/94/34 81/96/34 82/98/34 83/100/34 84/102/34 85/104/34 86/106/34 87/108/34 88/110/34 89/112/34 90/114/34 91/116/34 92/118/34 93/120/34 94/122/34 95/124/34 96/126/34 97/128/34
f 27/116/35 28/118/35 92/118/35 91/116/35
f 14/67/36 15/92/36 79/92/36 78/67/36
f 28/118/37 29/120/37 93/120/37 92/118/37
f 15/92/38 16/94/38 80/94/38 79/92/38
f 1/69/39 3/68/39 67/68/39 66/69/39
f 29/120/40 30/122/40 94/122/40 93/120/40
f 16/94/41 17/96/41 81/96/41 80/94/41
f 3/68/42 4/72/42 68/72/42 67/68/42
f 30/122/43 31/124/43 95/124/43 94/122/43
f 17/96/44 18/98/44 82/98/44 81/96/44
f 4/72/45 5/74/45 69/74/45 68/72/45
f 31/124/46 32/126/46 96/126/46 95/124/46
f 18/98/47 19/100/47 83/100/47 82/98/47
f 5/74/48 6/76/48 70/76/48 69/74/48
f 32/126/49 33/128/49 97/128/49 96/126/49
f 19/100/50 20/102/50 84/102/50 83/100/50
f 6/76/51 7/78/51 71/78/51 70/76/51
f 33/128/52 1/69/52 66/69/52 97/128/52
f 20/102/53 21/104/53 85/104/53 84/102/53
f 7/78/54 8/80/54 72/80/54 71/78/54
f 21/104/55 22/106/55 86/106/55 85/104/55
f 8/80/56 9/82/56 73/82/56 72/80/56
f 22/106/57 23/108/57 87/108/57 86/106/57
f 9/82/58 10/84/58 74/84/58 73/82/58
f 23/108/59 24/110/59 88/110/59 87/108/59
f 10/84/60 11/86/60 75/86/60 74/84/60
f 24/110/61 25/112/61 89/112/61 88/110/61
f 11/86/62 12/88/62 76/88/62 75/86/62
f 25/112/63 26/114/63 90/114/63 89/112/63
f 12/88/64 13/66/64 77/66/64 76/88/64
f 26/114/65 27/116/65 91/116/65 90/114/65
