# Blender v2.93.5 OBJ File: ''
# www.blender.org
mtllib con03.mtl
o Cylinder.002_Grey_0
v 3.153803 2.362250 6.458179
v 3.634658 -0.351066 -4.241762
v 3.302262 0.035760 -4.354792
v 2.821407 2.749076 6.345149
v 2.821407 2.749076 6.345149
v 3.302262 0.035760 -4.354792
v 2.813221 0.207352 -4.420282
v 2.332366 2.920669 6.279658
v 2.332366 2.920669 6.279658
v 2.813221 0.207352 -4.420282
v 2.298572 0.117730 -4.420686
v 1.817717 2.831054 6.279254
v 1.817717 2.831054 6.279254
v 2.298572 0.117730 -4.420686
v 1.896215 -0.209075 -4.355894
v 1.415359 2.504241 6.344046
v 1.415359 2.504241 6.344046
v 1.896215 -0.209075 -4.355894
v 1.713962 -0.685516 -4.243268
v 1.233107 2.027801 6.456672
v 1.233107 2.027801 6.456672
v 1.713962 -0.685516 -4.243268
v 1.800648 -1.183921 -4.112986
v 1.319792 1.529395 6.586955
v 1.319792 1.529395 6.586955
v 1.800648 -1.183921 -4.112986
v 2.133043 -1.570747 -3.999956
v 1.652188 1.142569 6.699984
v 1.652188 1.142569 6.699984
v 2.133043 -1.570747 -3.999956
v 2.622084 -1.742339 -3.934465
v 2.141229 0.970977 6.765474
v 2.141229 0.970977 6.765474
v 2.622084 -1.742339 -3.934465
v 3.136733 -1.652725 -3.934062
v 2.655877 1.060592 6.765878
v 2.655877 1.060592 6.765878
v 3.136733 -1.652725 -3.934062
v 3.539090 -1.325912 -3.998854
v 3.058234 1.387404 6.701086
v 3.058234 1.387404 6.701086
v 3.539090 -1.325912 -3.998854
v 3.721343 -0.849471 -4.111480
v 3.240487 1.863845 6.588460
v 3.240487 1.863845 6.588460
v 3.721343 -0.849471 -4.111480
v 3.634658 -0.351066 -4.241762
v 3.153803 2.362250 6.458179
v -4.937670 -1.154709 1.715760
v 4.314542 0.111541 1.837346
v -4.937670 0.111541 1.837350
v -4.937670 0.111541 1.837350
v 4.314542 0.111541 1.837346
v 4.314541 1.268936 1.309523
v -4.937670 1.268936 1.309527
v -4.937670 1.268936 1.309527
v 4.314541 1.268936 1.309523
v 4.314541 2.007362 0.273715
v -4.937670 2.007362 0.273719
v -4.937670 2.007362 0.273719
v 4.314541 2.007362 0.273715
v 4.314541 2.128952 -0.992532
v -4.937671 2.128952 -0.992529
v -4.937671 2.128952 -0.992529
v 4.314541 2.128952 -0.992532
v 4.314541 1.601128 -2.149931
v -4.937671 1.601128 -2.149926
v -4.937671 1.601128 -2.149926
v 4.314541 1.601128 -2.149931
v 4.314540 0.565323 -2.888354
v -4.937671 0.565323 -2.888350
v -4.937671 0.565323 -2.888350
v 4.314540 0.565323 -2.888354
v 4.314541 -0.700927 -3.009944
v -4.937671 -0.700927 -3.009940
v -4.937671 -0.700927 -3.009940
v 4.314541 -0.700927 -3.009944
v 4.314541 -1.858322 -2.482122
v -4.937671 -1.858322 -2.482117
v -4.937671 -1.858322 -2.482117
v 4.314541 -1.858322 -2.482122
v 4.314541 -2.596748 -1.446314
v -4.937671 -2.596748 -1.446311
v -4.937671 -2.596748 -1.446311
v 4.314541 -2.596748 -1.446314
v 4.314541 -2.718338 -0.180068
v -4.937670 -2.718338 -0.180063
v -4.937670 -2.718338 -0.180063
v 4.314541 -2.718338 -0.180068
v 4.314541 -2.190514 0.977331
v -4.937670 -2.190514 0.977335
v 4.314541 -2.190514 0.977331
v 4.314542 -1.154709 1.715756
v -4.937670 -1.154709 1.715760
v -5.188441 -1.837334 3.542995
v 0.857125 -1.837334 3.542992
v 0.857125 0.433982 3.761093
v -5.188442 0.433982 3.761096
v -5.188442 0.433982 3.761096
v 0.857125 0.433982 3.761093
v 0.857125 2.510055 2.814315
v -5.188442 2.510055 2.814317
v -5.188442 2.510055 2.814317
v 0.857125 2.510055 2.814315
v 0.857125 3.834594 0.956345
v -5.188442 3.834594 0.956348
v -5.188442 3.834594 0.956348
v 0.857125 3.834594 0.956345
v 0.857124 4.052696 -1.314974
v -5.188443 4.052696 -1.314971
v -5.188443 4.052696 -1.314971
v 0.857124 4.052696 -1.314974
v 0.857123 3.105919 -3.391046
v -5.188443 3.105919 -3.391043
v -5.188443 3.105919 -3.391043
v 0.857123 3.105919 -3.391046
v 0.857123 1.247948 -4.715587
v -5.188444 1.247948 -4.715584
v -5.188444 1.247948 -4.715584
v 0.857123 1.247948 -4.715587
v 0.857123 -1.023368 -4.933688
v -5.188444 -1.023368 -4.933685
v -5.188444 -1.023368 -4.933685
v 0.857123 -1.023368 -4.933688
v 0.857123 -3.099441 -3.986910
v -5.188444 -3.099441 -3.986907
v -5.188444 -3.099441 -3.986907
v 0.857123 -3.099441 -3.986910
v 0.857124 -4.423980 -2.128942
v -5.188443 -4.423980 -2.128938
v -5.188443 -4.423980 -2.128938
v 0.857124 -4.423980 -2.128942
v 0.857124 -4.642082 0.142377
v -5.188443 -4.642082 0.142380
v -5.188443 -4.642082 0.142380
v 0.857124 -4.642082 0.142377
v 0.857125 -3.695305 2.218449
v -5.188442 -3.695305 2.218452
v -5.188442 -3.695305 2.218452
v 0.857125 -3.695305 2.218449
v 0.857125 -1.837334 3.542992
v -5.188441 -1.837334 3.542995
v 2.622084 -1.742339 -3.934465
v 3.539090 -1.325912 -3.998854
v 3.136733 -1.652725 -3.934062
v 3.721343 -0.849471 -4.111480
v 2.133043 -1.570747 -3.999956
v 3.634658 -0.351066 -4.241762
v 1.800648 -1.183921 -4.112986
v 3.302262 0.035760 -4.354792
v 1.713962 -0.685516 -4.243268
v 2.813221 0.207352 -4.420282
v 1.896215 -0.209075 -4.355894
v 2.298572 0.117730 -4.420686
v 3.058234 1.387404 6.701086
v 2.141229 0.970977 6.765474
v 2.655877 1.060592 6.765878
v 3.240487 1.863845 6.588460
v 1.652188 1.142569 6.699984
v 3.153803 2.362250 6.458179
v 1.319792 1.529395 6.586955
v 2.821407 2.749076 6.345149
v 1.233107 2.027801 6.456672
v 2.332366 2.920669 6.279658
v 1.415359 2.504241 6.344046
v 1.817717 2.831054 6.279254
v 4.314542 -1.154709 1.715756
v 4.314541 1.268936 1.309523
v 4.314542 0.111541 1.837346
v 4.314541 2.007362 0.273715
v 4.314541 -2.190514 0.977331
v 4.314541 2.128952 -0.992532
v 4.314541 -2.718338 -0.180068
v 4.314541 1.601128 -2.149931
v 4.314541 -2.596748 -1.446314
v 4.314540 0.565323 -2.888354
v 4.314541 -1.858322 -2.482122
v 4.314541 -0.700927 -3.009944
v -4.937670 1.268936 1.309527
v -4.937670 -1.154709 1.715760
v -4.937670 0.111541 1.837350
v -4.937670 2.007362 0.273719
v -4.937670 -2.190514 0.977335
v -4.937671 2.128952 -0.992529
v -4.937670 -2.718338 -0.180063
v -4.937671 1.601128 -2.149926
v -4.937671 -2.596748 -1.446311
v -4.937671 0.565323 -2.888350
v -4.937671 -1.858322 -2.482117
v -4.937671 -0.700927 -3.009940
v 0.857125 -1.837334 3.542992
v 0.857125 2.510055 2.814315
v 0.857125 0.433982 3.761093
v 0.857125 3.834594 0.956345
v 0.857125 -3.695305 2.218449
v 0.857124 4.052696 -1.314974
v 0.857124 -4.642082 0.142377
v 0.857123 3.105919 -3.391046
v 0.857124 -4.423980 -2.128942
v 0.857123 1.247948 -4.715587
v 0.857123 -3.099441 -3.986910
v -5.188442 2.510055 2.814317
v -5.188441 -1.837334 3.542995
v -5.188442 0.433982 3.761096
v -5.188442 3.834594 0.956348
v -5.188442 -3.695305 2.218452
v -5.188443 4.052696 -1.314971
v -5.188443 -4.642082 0.142380
v -5.188443 3.105919 -3.391043
v -5.188443 -4.423980 -2.128938
v -5.188444 1.247948 -4.715584
v -5.188444 -3.099441 -3.986907
v -5.188444 -1.023368 -4.933685
v 4.314542 -1.154709 1.715756
v -4.937670 -2.190514 0.977335
v 0.857123 -1.023368 -4.933688
vn 0.7702 0.6256 -0.1240
vn 0.3489 0.9120 -0.2156
vn -0.1660 0.9541 -0.2494
vn -0.1659 0.9541 -0.2494
vn -0.6363 0.7405 -0.2164
vn -0.9362 0.3285 -0.1254
vn -0.9852 -0.1716 -0.0008
vn -0.9852 -0.1715 -0.0008
vn -0.7702 -0.6256 0.1240
vn -0.3489 -0.9120 0.2156
vn 0.1659 -0.9541 0.2494
vn 0.6363 -0.7405 0.2164
vn 0.9362 -0.3285 0.1254
vn 0.9852 0.1715 0.0008
vn 0.0000 -0.0956 0.9954
vn 0.0000 0.4149 0.9099
vn 0.0000 0.8143 0.5805
vn 0.0000 0.9954 0.0956
vn -0.0000 0.9099 -0.4149
vn -0.0000 0.5805 -0.8143
vn -0.0000 0.0956 -0.9954
vn -0.0000 -0.4149 -0.9099
vn -0.0000 -0.8143 -0.5805
vn -0.0000 -0.9954 -0.0956
vn 0.0000 -0.9099 0.4149
vn 0.0000 -0.5805 0.8143
vn 0.0435 -0.2456 -0.9684
vn -0.0435 0.2456 0.9684
vn 1.0000 0.0000 -0.0000
vn -1.0000 -0.0000 0.0000
usemtl Grey.002
s off
f 1//1 2//1 3//1
f 1//1 3//1 4//1
f 5//2 6//2 7//2
f 5//2 7//2 8//2
f 9//3 10//3 11//3
f 9//4 11//4 12//4
f 13//5 14//5 15//5
f 13//5 15//5 16//5
f 17//6 18//6 19//6
f 17//6 19//6 20//6
f 21//7 22//7 23//7
f 21//8 23//8 24//8
f 25//9 26//9 27//9
f 25//9 27//9 28//9
f 29//10 30//10 31//10
f 29//10 31//10 32//10
f 33//11 34//11 35//11
f 33//11 35//11 36//11
f 37//12 38//12 39//12
f 37//12 39//12 40//12
f 41//13 42//13 43//13
f 41//13 43//13 44//13
f 45//14 46//14 47//14
f 45//14 47//14 48//14
f 49//15 50//15 51//15
f 52//16 53//16 54//16
f 52//16 54//16 55//16
f 56//17 57//17 58//17
f 56//17 58//17 59//17
f 60//18 61//18 62//18
f 60//18 62//18 63//18
f 64//19 65//19 66//19
f 64//19 66//19 67//19
f 68//20 69//20 70//20
f 68//20 70//20 71//20
f 72//21 73//21 74//21
f 72//21 74//21 75//21
f 76//22 77//22 78//22
f 76//22 78//22 79//22
f 80//23 81//23 82//23
f 80//23 82//23 83//23
f 84//24 85//24 86//24
f 84//24 86//24 87//24
f 88//25 89//25 90//25
f 91//26 92//26 93//26
f 91//26 93//26 94//26
f 95//15 96//15 97//15
f 95//15 97//15 98//15
f 99//16 100//16 101//16
f 99//16 101//16 102//16
f 103//17 104//17 105//17
f 103//17 105//17 106//17
f 107//18 108//18 109//18
f 107//18 109//18 110//18
f 111//19 112//19 113//19
f 111//19 113//19 114//19
f 115//20 116//20 117//20
f 115//20 117//20 118//20
f 119//21 120//21 121//21
f 119//21 121//21 122//21
f 123//22 124//22 125//22
f 123//22 125//22 126//22
f 127//23 128//23 129//23
f 127//23 129//23 130//23
f 131//24 132//24 133//24
f 131//24 133//24 134//24
f 135//25 136//25 137//25
f 135//25 137//25 138//25
f 139//26 140//26 141//26
f 139//26 141//26 142//26
f 143//27 144//27 145//27
f 144//27 143//27 146//27
f 146//27 143//27 147//27
f 146//27 147//27 148//27
f 148//27 147//27 149//27
f 148//27 149//27 150//27
f 150//27 149//27 151//27
f 150//27 151//27 152//27
f 152//27 151//27 153//27
f 152//27 153//27 154//27
f 155//28 156//28 157//28
f 156//28 155//28 158//28
f 156//28 158//28 159//28
f 159//28 158//28 160//28
f 159//28 160//28 161//28
f 161//28 160//28 162//28
f 161//28 162//28 163//28
f 163//28 162//28 164//28
f 163//28 164//28 165//28
f 165//28 164//28 166//28
f 167//29 168//29 169//29
f 168//29 167//29 170//29
f 170//29 167//29 171//29
f 170//29 171//29 172//29
f 172//29 171//29 173//29
f 172//29 173//29 174//29
f 174//29 173//29 175//29
f 174//29 175//29 176//29
f 176//29 175//29 177//29
f 176//29 177//29 178//29
f 179//30 180//30 181//30
f 180//30 179//30 182//30
f 180//30 182//30 183//30
f 183//30 182//30 184//30
f 183//30 184//30 185//30
f 185//30 184//30 186//30
f 185//30 186//30 187//30
f 187//30 186//30 188//30
f 189//30 188//30 190//30
f 191//29 192//29 193//29
f 192//29 191//29 194//29
f 194//29 191//29 195//29
f 194//29 195//29 196//29
f 196//29 197//29 198//29
f 198//29 197//29 199//29
f 198//29 199//29 200//29
f 200//29 199//29 201//29
f 202//30 203//30 204//30
f 203//30 202//30 205//30
f 203//30 205//30 206//30
f 206//30 205//30 207//30
f 206//30 207//30 208//30
f 208//30 207//30 209//30
f 208//30 209//30 210//30
f 210//30 209//30 211//30
f 210//30 211//30 212//30
f 212//30 211//30 213//30
s 1
f 49//15 214//15 50//15
f 88//25 90//25 215//25
f 187//30 188//30 189//30
f 196//29 195//29 197//29
f 200//29 201//29 216//29
