# Blender v2.93.5 OBJ File: ''
# www.blender.org
mtllib moon.mtl
o GeoSphere002_07_-_Default_0
v 0.000107 -0.000000 137.274902
v 6.440811 -0.000000 135.549133
v 0.000107 6.440706 135.549133
v 6.440811 -0.000000 135.549133
v 11.155739 -0.000000 130.834198
v 7.055550 7.055440 132.540421
v 6.440811 -0.000000 135.549133
v 7.055550 7.055440 132.540421
v 0.000107 6.440706 135.549133
v 0.000107 6.440706 135.549133
v 7.055550 7.055440 132.540421
v 0.000107 11.155630 130.834198
v 11.155739 -0.000000 130.834198
v 12.881516 -0.000000 124.393501
v 11.155739 6.440706 124.393501
v 11.155739 -0.000000 130.834198
v 11.155739 6.440706 124.393501
v 7.055550 7.055440 132.540421
v 7.055550 7.055440 132.540421
v 11.155739 6.440706 124.393501
v 6.440811 11.155630 124.393501
v 7.055550 7.055440 132.540421
v 6.440811 11.155630 124.393501
v 0.000107 11.155630 130.834198
v 0.000107 11.155630 130.834198
v 6.440811 11.155630 124.393501
v 0.000107 12.881412 124.393501
v 0.000107 -0.000000 137.274902
v 0.000107 6.440706 135.549133
v -6.440598 -0.000000 135.549133
v 0.000107 6.440706 135.549133
v 0.000107 11.155630 130.834198
v -7.055328 7.055440 132.540421
v 0.000107 6.440706 135.549133
v -7.055328 7.055440 132.540421
v -6.440598 -0.000000 135.549133
v -6.440598 -0.000000 135.549133
v -7.055328 7.055440 132.540421
v -11.155518 -0.000000 130.834198
v 0.000107 11.155630 130.834198
v 0.000107 12.881412 124.393501
v -6.440598 11.155630 124.393501
v 0.000107 11.155630 130.834198
v -6.440598 11.155630 124.393501
v -7.055328 7.055440 132.540421
v -7.055328 7.055440 132.540421
v -6.440598 11.155630 124.393501
v -11.155518 6.440706 124.393501
v -7.055328 7.055440 132.540421
v -11.155518 6.440706 124.393501
v -11.155518 -0.000000 130.834198
v -11.155518 -0.000000 130.834198
v -11.155518 6.440706 124.393501
v -12.881302 -0.000000 124.393501
v 0.000107 -0.000000 137.274902
v -6.440598 -0.000000 135.549133
v 0.000107 -6.440706 135.549133
v -6.440598 -0.000000 135.549133
v -11.155518 -0.000000 130.834198
v -7.055328 -7.055440 132.540421
v -6.440598 -0.000000 135.549133
v -7.055328 -7.055440 132.540421
v 0.000107 -6.440706 135.549133
v 0.000107 -6.440706 135.549133
v -7.055328 -7.055440 132.540421
v 0.000107 -11.155630 130.834198
v -11.155518 -0.000000 130.834198
v -12.881302 -0.000000 124.393501
v -11.155518 -6.440706 124.393501
v -11.155518 -0.000000 130.834198
v -11.155518 -6.440706 124.393501
v -7.055328 -7.055440 132.540421
v -7.055328 -7.055440 132.540421
v -11.155518 -6.440706 124.393501
v -6.440598 -11.155630 124.393501
v -7.055328 -7.055440 132.540421
v -6.440598 -11.155630 124.393501
v 0.000107 -11.155630 130.834198
v 0.000107 -11.155630 130.834198
v -6.440598 -11.155630 124.393501
v 0.000107 -12.881412 124.393501
v 0.000107 -0.000000 137.274902
v 0.000107 -6.440706 135.549133
v 6.440811 -0.000000 135.549133
v 0.000107 -6.440706 135.549133
v 0.000107 -11.155630 130.834198
v 7.055550 -7.055440 132.540421
v 0.000107 -6.440706 135.549133
v 7.055550 -7.055440 132.540421
v 6.440811 -0.000000 135.549133
v 6.440811 -0.000000 135.549133
v 7.055550 -7.055440 132.540421
v 11.155739 -0.000000 130.834198
v 0.000107 -11.155630 130.834198
v 0.000107 -12.881412 124.393501
v 6.440811 -11.155630 124.393501
v 0.000107 -11.155630 130.834198
v 6.440811 -11.155630 124.393501
v 7.055550 -7.055440 132.540421
v 7.055550 -7.055440 132.540421
v 6.440811 -11.155630 124.393501
v 11.155739 -6.440706 124.393501
v 7.055550 -7.055440 132.540421
v 11.155739 -6.440706 124.393501
v 11.155739 -0.000000 130.834198
v 11.155739 -0.000000 130.834198
v 11.155739 -6.440706 124.393501
v 12.881516 -0.000000 124.393501
v 0.000107 -0.000000 111.512093
v 0.000107 6.440706 113.237869
v 6.440811 -0.000000 113.237869
v 0.000107 6.440706 113.237869
v 0.000107 11.155630 117.952797
v 7.055550 7.055440 116.246582
v 0.000107 6.440706 113.237869
v 7.055550 7.055440 116.246582
v 6.440811 -0.000000 113.237869
v 6.440811 -0.000000 113.237869
v 7.055550 7.055440 116.246582
v 11.155739 -0.000000 117.952797
v 0.000107 11.155630 117.952797
v 0.000107 12.881412 124.393501
v 6.440811 11.155630 124.393501
v 0.000107 11.155630 117.952797
v 6.440811 11.155630 124.393501
v 7.055550 7.055440 116.246582
v 7.055550 7.055440 116.246582
v 6.440811 11.155630 124.393501
v 11.155739 6.440706 124.393501
v 7.055550 7.055440 116.246582
v 11.155739 6.440706 124.393501
v 11.155739 -0.000000 117.952797
v 11.155739 -0.000000 117.952797
v 11.155739 6.440706 124.393501
v 12.881516 -0.000000 124.393501
v 0.000107 -0.000000 111.512093
v -6.440598 -0.000000 113.237869
v 0.000107 6.440706 113.237869
v -6.440598 -0.000000 113.237869
v -11.155518 -0.000000 117.952797
v -7.055328 7.055440 116.246582
v -6.440598 -0.000000 113.237869
v -7.055328 7.055440 116.246582
v 0.000107 6.440706 113.237869
v 0.000107 6.440706 113.237869
v -7.055328 7.055440 116.246582
v 0.000107 11.155630 117.952797
v -11.155518 -0.000000 117.952797
v -12.881302 -0.000000 124.393501
v -11.155518 6.440706 124.393501
v -11.155518 -0.000000 117.952797
v -11.155518 6.440706 124.393501
v -7.055328 7.055440 116.246582
v -7.055328 7.055440 116.246582
v -11.155518 6.440706 124.393501
v -6.440598 11.155630 124.393501
v -7.055328 7.055440 116.246582
v -6.440598 11.155630 124.393501
v 0.000107 11.155630 117.952797
v 0.000107 11.155630 117.952797
v -6.440598 11.155630 124.393501
v 0.000107 12.881412 124.393501
v 0.000107 -0.000000 111.512093
v 0.000107 -6.440706 113.237869
v -6.440598 -0.000000 113.237869
v 0.000107 -6.440706 113.237869
v 0.000107 -11.155630 117.952797
v -7.055328 -7.055440 116.246582
v 0.000107 -6.440706 113.237869
v -7.055328 -7.055440 116.246582
v -6.440598 -0.000000 113.237869
v -6.440598 -0.000000 113.237869
v -7.055328 -7.055440 116.246582
v -11.155518 -0.000000 117.952797
v 0.000107 -11.155630 117.952797
v 0.000107 -12.881412 124.393501
v -6.440598 -11.155630 124.393501
v 0.000107 -11.155630 117.952797
v -6.440598 -11.155630 124.393501
v -7.055328 -7.055440 116.246582
v -7.055328 -7.055440 116.246582
v -6.440598 -11.155630 124.393501
v -11.155518 -6.440706 124.393501
v -7.055328 -7.055440 116.246582
v -11.155518 -6.440706 124.393501
v -11.155518 -0.000000 117.952797
v -11.155518 -0.000000 117.952797
v -11.155518 -6.440706 124.393501
v -12.881302 -0.000000 124.393501
v 0.000107 -0.000000 111.512093
v 6.440811 -0.000000 113.237869
v 0.000107 -6.440706 113.237869
v 6.440811 -0.000000 113.237869
v 11.155739 -0.000000 117.952797
v 7.055550 -7.055440 116.246582
v 6.440811 -0.000000 113.237869
v 7.055550 -7.055440 116.246582
v 0.000107 -6.440706 113.237869
v 0.000107 -6.440706 113.237869
v 7.055550 -7.055440 116.246582
v 0.000107 -11.155630 117.952797
v 11.155739 -0.000000 117.952797
v 12.881516 -0.000000 124.393501
v 11.155739 -6.440706 124.393501
v 11.155739 -0.000000 117.952797
v 11.155739 -6.440706 124.393501
v 7.055550 -7.055440 116.246582
v 7.055550 -7.055440 116.246582
v 11.155739 -6.440706 124.393501
v 6.440811 -11.155630 124.393501
v 7.055550 -7.055440 116.246582
v 6.440811 -11.155630 124.393501
v 0.000107 -11.155630 117.952797
v 0.000107 -11.155630 117.952797
v 6.440811 -11.155630 124.393501
v 0.000107 -12.881412 124.393501
vt 0.625000 0.000000
vt 0.500000 0.166667
vt 0.750000 0.166667
vt 0.500000 0.166667
vt 0.500000 0.333333
vt 0.625000 0.282047
vt 0.500000 0.166667
vt 0.625000 0.282047
vt 0.750000 0.166667
vt 0.750000 0.166667
vt 0.625000 0.282047
vt 0.750000 0.333333
vt 0.500000 0.333333
vt 0.500000 0.500000
vt 0.583333 0.500000
vt 0.625000 0.282047
vt 0.583333 0.500000
vt 0.666667 0.500000
vt 0.625000 0.282047
vt 0.666667 0.500000
vt 0.750000 0.333333
vt 0.750000 0.333333
vt 0.666667 0.500000
vt 0.750000 0.500000
vt 0.875000 0.000000
vt 0.750000 0.166667
vt 1.000000 0.166667
vt 0.750000 0.166667
vt 0.750000 0.333333
vt 0.875000 0.282047
vt 0.750000 0.166667
vt 0.875000 0.282047
vt 1.000000 0.166667
vt 1.000000 0.166667
vt 0.875000 0.282047
vt 1.000000 0.333333
vt 0.750000 0.333333
vt 0.750000 0.500000
vt 0.833333 0.500000
vt 0.750000 0.333333
vt 0.833333 0.500000
vt 0.875000 0.282047
vt 0.875000 0.282047
vt 0.833333 0.500000
vt 0.916667 0.500000
vt 1.000000 0.333333
vt 0.916667 0.500000
vt 1.000000 0.500000
vt 0.125000 0.000000
vt 0.000000 0.166667
vt 0.250000 0.166667
vt 0.000000 0.166667
vt 0.000000 0.333333
vt 0.125000 0.282047
vt 0.000000 0.166667
vt 0.125000 0.282047
vt 0.250000 0.166667
vt 0.250000 0.166667
vt 0.125000 0.282047
vt 0.250000 0.333333
vt 0.000000 0.333333
vt 0.000000 0.500000
vt 0.083333 0.500000
vt 0.125000 0.282047
vt 0.083333 0.500000
vt 0.166667 0.500000
vt 0.125000 0.282047
vt 0.166667 0.500000
vt 0.250000 0.333333
vt 0.250000 0.333333
vt 0.166667 0.500000
vt 0.250000 0.500000
vt 0.375000 0.000000
vt 0.250000 0.166667
vt 0.500000 0.166667
vt 0.250000 0.166667
vt 0.250000 0.333333
vt 0.375000 0.282047
vt 0.250000 0.166667
vt 0.375000 0.282047
vt 0.500000 0.166667
vt 0.500000 0.166667
vt 0.375000 0.282047
vt 0.500000 0.333333
vt 0.250000 0.333333
vt 0.250000 0.500000
vt 0.333333 0.500000
vt 0.250000 0.333333
vt 0.333333 0.500000
vt 0.375000 0.282047
vt 0.375000 0.282047
vt 0.333333 0.500000
vt 0.416667 0.500000
vt 0.500000 0.333333
vt 0.416667 0.500000
vt 0.500000 0.500000
vt 0.625000 1.000000
vt 0.750000 0.833333
vt 0.500000 0.833333
vt 0.750000 0.833333
vt 0.750000 0.666667
vt 0.625000 0.717953
vt 0.750000 0.833333
vt 0.625000 0.717953
vt 0.500000 0.833333
vt 0.500000 0.833333
vt 0.625000 0.717953
vt 0.500000 0.666667
vt 0.750000 0.666667
vt 0.750000 0.500000
vt 0.666667 0.500000
vt 0.750000 0.666667
vt 0.666667 0.500000
vt 0.625000 0.717953
vt 0.625000 0.717953
vt 0.666667 0.500000
vt 0.583333 0.500000
vt 0.500000 0.666667
vt 0.583333 0.500000
vt 0.500000 0.500000
vt 0.875000 1.000000
vt 1.000000 0.833333
vt 0.750000 0.833333
vt 1.000000 0.833333
vt 1.000000 0.666667
vt 0.875000 0.717953
vt 1.000000 0.833333
vt 0.875000 0.717953
vt 0.750000 0.833333
vt 0.750000 0.833333
vt 0.875000 0.717953
vt 0.750000 0.666667
vt 1.000000 0.666667
vt 1.000000 0.500000
vt 0.916667 0.500000
vt 0.875000 0.717953
vt 0.916667 0.500000
vt 0.833333 0.500000
vt 0.875000 0.717953
vt 0.833333 0.500000
vt 0.750000 0.666667
vt 0.750000 0.666667
vt 0.833333 0.500000
vt 0.750000 0.500000
vt 0.125000 1.000000
vt 0.250000 0.833333
vt 0.000000 0.833333
vt 0.250000 0.833333
vt 0.250000 0.666667
vt 0.125000 0.717953
vt 0.250000 0.833333
vt 0.125000 0.717953
vt 0.000000 0.833333
vt 0.000000 0.833333
vt 0.125000 0.717953
vt 0.000000 0.666667
vt 0.250000 0.666667
vt 0.250000 0.500000
vt 0.166667 0.500000
vt 0.250000 0.666667
vt 0.166667 0.500000
vt 0.125000 0.717953
vt 0.125000 0.717953
vt 0.166667 0.500000
vt 0.083333 0.500000
vt 0.000000 0.666667
vt 0.083333 0.500000
vt 0.000000 0.500000
vt 0.375000 1.000000
vt 0.500000 0.833333
vt 0.250000 0.833333
vt 0.500000 0.833333
vt 0.500000 0.666667
vt 0.375000 0.717953
vt 0.500000 0.833333
vt 0.375000 0.717953
vt 0.250000 0.833333
vt 0.250000 0.833333
vt 0.375000 0.717953
vt 0.250000 0.666667
vt 0.500000 0.666667
vt 0.500000 0.500000
vt 0.416667 0.500000
vt 0.375000 0.717953
vt 0.416667 0.500000
vt 0.333333 0.500000
vt 0.375000 0.717953
vt 0.333333 0.500000
vt 0.250000 0.666667
vt 0.250000 0.666667
vt 0.333333 0.500000
vt 0.250000 0.500000
vt 0.500000 0.333333
vt 0.583333 0.500000
vt 0.625000 0.282047
vt 0.875000 0.282047
vt 0.916667 0.500000
vt 1.000000 0.333333
vt 0.000000 0.333333
vt 0.083333 0.500000
vt 0.125000 0.282047
vt 0.375000 0.282047
vt 0.416667 0.500000
vt 0.500000 0.333333
vt 0.625000 0.717953
vt 0.583333 0.500000
vt 0.500000 0.666667
vt 1.000000 0.666667
vt 0.916667 0.500000
vt 0.875000 0.717953
vt 0.125000 0.717953
vt 0.083333 0.500000
vt 0.000000 0.666667
vt 0.500000 0.666667
vt 0.416667 0.500000
vt 0.375000 0.717953
vn 0.2506 0.2506 0.9351
vn 0.6876 0.2333 0.6876
vn 0.3430 0.3430 0.8745
vn 0.2333 0.6876 0.6876
vn 0.9351 0.2506 0.2506
vn 0.6768 0.6768 0.2896
vn 0.3902 0.8339 0.3902
vn 0.2506 0.9351 0.2506
vn -0.2506 0.2506 0.9351
vn -0.2333 0.6876 0.6876
vn -0.3430 0.3430 0.8745
vn -0.6876 0.2333 0.6876
vn -0.2506 0.9351 0.2506
vn -0.3902 0.8339 0.3902
vn -0.6768 0.6768 0.2896
vn -0.9351 0.2506 0.2506
vn -0.2506 -0.2506 0.9351
vn -0.6876 -0.2333 0.6876
vn -0.3430 -0.3430 0.8745
vn -0.2333 -0.6876 0.6876
vn -0.9351 -0.2506 0.2506
vn -0.6768 -0.6768 0.2896
vn -0.3902 -0.8339 0.3902
vn -0.2506 -0.9351 0.2506
vn 0.2506 -0.2506 0.9351
vn 0.2333 -0.6876 0.6876
vn 0.3430 -0.3430 0.8745
vn 0.6876 -0.2333 0.6876
vn 0.2506 -0.9351 0.2506
vn 0.3902 -0.8339 0.3902
vn 0.6768 -0.6768 0.2896
vn 0.9351 -0.2506 0.2506
vn 0.2506 0.2506 -0.9351
vn 0.2333 0.6876 -0.6876
vn 0.3430 0.3430 -0.8745
vn 0.6876 0.2333 -0.6876
vn 0.2506 0.9351 -0.2506
vn 0.3902 0.8339 -0.3902
vn 0.6768 0.6768 -0.2896
vn 0.9351 0.2506 -0.2506
vn -0.2506 0.2506 -0.9351
vn -0.6876 0.2333 -0.6876
vn -0.3430 0.3430 -0.8745
vn -0.2333 0.6876 -0.6876
vn -0.9351 0.2506 -0.2506
vn -0.6768 0.6768 -0.2896
vn -0.3902 0.8339 -0.3902
vn -0.2506 0.9351 -0.2506
vn -0.2506 -0.2506 -0.9351
vn -0.2333 -0.6876 -0.6876
vn -0.3430 -0.3430 -0.8745
vn -0.6876 -0.2333 -0.6876
vn -0.2506 -0.9351 -0.2506
vn -0.3902 -0.8339 -0.3902
vn -0.6768 -0.6768 -0.2896
vn -0.9351 -0.2506 -0.2506
vn 0.2506 -0.2506 -0.9351
vn 0.6876 -0.2333 -0.6876
vn 0.3430 -0.3430 -0.8745
vn 0.2333 -0.6876 -0.6876
vn 0.9351 -0.2506 -0.2506
vn 0.6768 -0.6768 -0.2896
vn 0.3902 -0.8339 -0.3902
vn 0.2506 -0.9351 -0.2506
vn 0.8339 0.3902 0.3902
vn -0.8339 0.3902 0.3902
vn -0.8339 -0.3902 0.3902
vn 0.8339 -0.3902 0.3902
vn 0.8339 0.3902 -0.3902
vn -0.8339 0.3902 -0.3902
vn -0.8339 -0.3902 -0.3902
vn 0.8339 -0.3902 -0.3902
usemtl 07_-_Default
s off
f 1/1/1 2/2/1 3/3/1
f 4/4/2 5/5/2 6/6/2
f 7/7/3 8/8/3 9/9/3
f 10/10/4 11/11/4 12/12/4
f 13/13/5 14/14/5 15/15/5
f 19/16/6 20/17/6 21/18/6
f 22/19/7 23/20/7 24/21/7
f 25/22/8 26/23/8 27/24/8
f 28/25/9 29/26/9 30/27/9
f 31/28/10 32/29/10 33/30/10
f 34/31/11 35/32/11 36/33/11
f 37/34/12 38/35/12 39/36/12
f 40/37/13 41/38/13 42/39/13
f 43/40/14 44/41/14 45/42/14
f 46/43/15 47/44/15 48/45/15
f 52/46/16 53/47/16 54/48/16
f 55/49/17 56/50/17 57/51/17
f 58/52/18 59/53/18 60/54/18
f 61/55/19 62/56/19 63/57/19
f 64/58/20 65/59/20 66/60/20
f 67/61/21 68/62/21 69/63/21
f 73/64/22 74/65/22 75/66/22
f 76/67/23 77/68/23 78/69/23
f 79/70/24 80/71/24 81/72/24
f 82/73/25 83/74/25 84/75/25
f 85/76/26 86/77/26 87/78/26
f 88/79/27 89/80/27 90/81/27
f 91/82/28 92/83/28 93/84/28
f 94/85/29 95/86/29 96/87/29
f 97/88/30 98/89/30 99/90/30
f 100/91/31 101/92/31 102/93/31
f 106/94/32 107/95/32 108/96/32
f 109/97/33 110/98/33 111/99/33
f 112/100/34 113/101/34 114/102/34
f 115/103/35 116/104/35 117/105/35
f 118/106/36 119/107/36 120/108/36
f 121/109/37 122/110/37 123/111/37
f 124/112/38 125/113/38 126/114/38
f 127/115/39 128/116/39 129/117/39
f 133/118/40 134/119/40 135/120/40
f 136/121/41 137/122/41 138/123/41
f 139/124/42 140/125/42 141/126/42
f 142/127/43 143/128/43 144/129/43
f 145/130/44 146/131/44 147/132/44
f 148/133/45 149/134/45 150/135/45
f 154/136/46 155/137/46 156/138/46
f 157/139/47 158/140/47 159/141/47
f 160/142/48 161/143/48 162/144/48
f 163/145/49 164/146/49 165/147/49
f 166/148/50 167/149/50 168/150/50
f 169/151/51 170/152/51 171/153/51
f 172/154/52 173/155/52 174/156/52
f 175/157/53 176/158/53 177/159/53
f 178/160/54 179/161/54 180/162/54
f 181/163/55 182/164/55 183/165/55
f 187/166/56 188/167/56 189/168/56
f 190/169/57 191/170/57 192/171/57
f 193/172/58 194/173/58 195/174/58
f 196/175/59 197/176/59 198/177/59
f 199/178/60 200/179/60 201/180/60
f 202/181/61 203/182/61 204/183/61
f 208/184/62 209/185/62 210/186/62
f 211/187/63 212/188/63 213/189/63
f 214/190/64 215/191/64 216/192/64
s 1
f 16/193/65 17/194/65 18/195/65
f 49/196/66 50/197/66 51/198/66
f 70/199/67 71/200/67 72/201/67
f 103/202/68 104/203/68 105/204/68
f 130/205/69 131/206/69 132/207/69
f 151/208/70 152/209/70 153/210/70
f 184/211/71 185/212/71 186/213/71
f 205/214/72 206/215/72 207/216/72
