# Blender v2.93.5 OBJ File: ''
# www.blender.org
mtllib seg01.mtl
o Cylinder_Metal_0
v 0.032823 -8.514745 -6.509724
v 0.032823 -6.717256 -6.509724
v 3.304095 -6.717256 -5.633190
v 3.304095 -8.514745 -5.633189
v 3.304095 -8.514745 -5.633189
v 3.304095 -6.717256 -5.633190
v 5.698833 -6.717256 -3.238451
v 5.698833 -8.514745 -3.238451
v 5.698833 -8.514745 -3.238451
v 5.698833 -6.717256 -3.238451
v 6.575367 -6.717256 0.032822
v 6.575367 -8.514745 0.032822
v 6.575367 -8.514745 0.032822
v 6.575367 -6.717256 0.032822
v 5.698832 -6.717256 3.304095
v 5.698832 -8.514746 3.304095
v 5.698832 -8.514746 3.304095
v 5.698832 -6.717256 3.304095
v 3.304096 -6.717256 5.698832
v 3.304096 -8.514745 5.698833
v 3.304096 -8.514745 5.698833
v 3.304096 -6.717256 5.698832
v 0.032824 -6.717256 6.575367
v 0.032824 -8.514745 6.575366
v 0.032824 -8.514745 6.575366
v 0.032824 -6.717256 6.575367
v -3.238447 -6.717256 5.698833
v -3.238447 -8.514745 5.698833
v -3.238447 -8.514745 5.698833
v -3.238447 -6.717256 5.698833
v -5.633185 -6.717256 3.304096
v -5.633185 -8.514746 3.304097
v -5.633185 -8.514746 3.304097
v -5.633185 -6.717256 3.304096
v -6.509722 -6.717256 0.032824
v -6.509722 -8.514745 0.032825
v -6.509722 -8.514745 0.032825
v -6.509722 -6.717256 0.032824
v -5.633188 -6.717256 -3.238448
v -5.633188 -8.514745 -3.238449
v -2.582783 -6.717256 4.563189
v 0.032824 -6.717256 5.264038
v 0.032824 -2.689615 4.084121
v -1.992826 -2.689615 3.541351
v -5.633188 -8.514745 -3.238449
v -5.633188 -6.717256 -3.238448
v -3.238453 -6.717256 -5.633188
v -3.238453 -8.514745 -5.633187
v -3.238453 -8.514745 -5.633187
v -3.238453 -6.717256 -5.633188
v 0.032823 -6.717256 -6.509724
v 0.032823 -8.514745 -6.509724
v 0.032823 -6.717256 -5.198395
v 2.648431 -6.717256 -4.497545
v 3.304095 -6.717256 -5.633190
v 0.032823 -6.717256 -6.509724
v 2.648431 -6.717256 -4.497545
v 4.563189 -6.717256 -2.582787
v 5.698833 -6.717256 -3.238451
v 3.304095 -6.717256 -5.633190
v 5.264037 -6.717256 0.032822
v 6.575367 -6.717256 0.032822
v 4.563189 -6.717256 2.648430
v 5.698832 -6.717256 3.304095
v 2.648431 -6.717256 4.563188
v 3.304096 -6.717256 5.698832
v 0.032824 -6.717256 5.264038
v 0.032824 -6.717256 6.575367
v -2.582783 -6.717256 4.563189
v -3.238447 -6.717256 5.698833
v -2.582783 -6.717256 4.563189
v -4.497541 -6.717256 2.648431
v -5.633185 -6.717256 3.304096
v -3.238447 -6.717256 5.698833
v -4.497541 -6.717256 2.648431
v -5.198392 -6.717256 0.032824
v -6.509722 -6.717256 0.032824
v -5.633185 -6.717256 3.304096
v -4.497544 -6.717256 -2.582785
v -5.633188 -6.717256 -3.238448
v -2.582788 -6.717256 -4.497544
v -3.238453 -6.717256 -5.633188
v -2.582788 -6.717256 -4.497544
v 0.032823 -6.717256 -5.198395
v 0.032823 -6.717256 -6.509724
v -3.238453 -6.717256 -5.633188
v -2.555300 4.037415 -1.461430
v -2.955683 4.037415 0.032823
v -2.685153 6.000856 0.032823
v -2.321013 6.000856 -1.326165
v 4.563189 -6.717256 2.648430
v 5.264037 -6.717256 0.032822
v 4.084121 -2.689615 0.032822
v 3.541351 -2.689615 2.058472
v -2.582788 -6.717256 -4.497544
v -4.497544 -6.717256 -2.582785
v -3.475706 -2.689615 -1.992826
v -1.992829 -2.689615 -3.475706
v 2.648431 -6.717256 -4.497545
v 0.032823 -6.717256 -5.198395
v 0.032823 -2.689615 -4.018477
v -4.497541 -6.717256 2.648431
v -2.582783 -6.717256 4.563189
v -1.992826 -2.689615 3.541351
v -3.475703 -2.689615 2.058473
v 2.648431 -6.717256 4.563188
v 4.563189 -6.717256 2.648430
v 3.541351 -2.689615 2.058472
v 2.058472 -2.689615 3.541349
v 0.032823 -6.717256 -5.198395
v -2.582788 -6.717256 -4.497544
v -1.992829 -2.689615 -3.475706
v 0.032823 -2.689615 -4.018477
v 4.563189 -6.717256 -2.582787
v 2.648431 -6.717256 -4.497545
v 2.058471 -2.689615 -3.475707
v 3.541351 -2.689615 -1.992828
v -5.198392 -6.717256 0.032824
v -4.497541 -6.717256 2.648431
v -3.475703 -2.689615 2.058473
v -4.018476 -2.689615 0.032823
v 0.032824 -6.717256 5.264038
v 2.648431 -6.717256 4.563188
v 2.058472 -2.689615 3.541349
v 0.032824 -2.689615 4.084121
v 5.264037 -6.717256 0.032822
v 4.563189 -6.717256 -2.582787
v 3.541351 -2.689615 -1.992828
v 4.084121 -2.689615 0.032822
v -4.497544 -6.717256 -2.582785
v -5.198392 -6.717256 0.032824
v -4.018476 -2.689615 0.032823
v -3.475706 -2.689615 -1.992826
v 0.032824 -2.721038 -2.685154
v 1.391810 -2.721038 -2.321014
v 2.058471 -2.689615 -3.475707
v 0.032823 -2.689615 -4.018477
v 1.391810 -2.721038 -2.321014
v 2.386658 -2.721039 -1.326167
v 3.541351 -2.689615 -1.992828
v 2.058471 -2.689615 -3.475707
v 2.386658 -2.721039 -1.326167
v 2.750798 -2.721038 0.032822
v 4.084121 -2.689615 0.032822
v 3.541351 -2.689615 -1.992828
v 2.750798 -2.721038 0.032822
v 2.386658 -2.721038 1.391810
v 3.541351 -2.689615 2.058472
v 4.084121 -2.689615 0.032822
v 2.386658 -2.721038 1.391810
v 1.391810 -2.721038 2.386658
v 2.058472 -2.689615 3.541349
v 3.541351 -2.689615 2.058472
v 1.391810 -2.721038 2.386658
v 0.032824 -2.721038 2.750797
v 0.032824 -2.689615 4.084121
v 2.058472 -2.689615 3.541349
v 0.032824 -2.721038 2.750797
v -1.326164 -2.721038 2.386659
v -1.992826 -2.689615 3.541351
v 0.032824 -2.689615 4.084121
v -1.326164 -2.721038 2.386659
v -2.321012 -2.721038 1.391811
v -3.475703 -2.689615 2.058473
v -1.992826 -2.689615 3.541351
v -2.321012 -2.721038 1.391811
v -2.685153 -2.721038 0.032823
v -4.018476 -2.689615 0.032823
v -3.475703 -2.689615 2.058473
v -2.685153 -2.721038 0.032823
v -2.321013 -2.721039 -1.326165
v -3.475706 -2.689615 -1.992826
v -4.018476 -2.689615 0.032823
v -2.321013 -2.721039 -1.326165
v -1.326167 -2.721038 -2.321013
v -1.992829 -2.689615 -3.475706
v -3.475706 -2.689615 -1.992826
v -1.326167 -2.721038 -2.321013
v 0.032824 -2.721038 -2.685154
v 0.032823 -2.689615 -4.018477
v -1.992829 -2.689615 -3.475706
v 2.096875 5.993273 0.032822
v 1.820345 5.993273 -0.999205
v 1.770863 8.477591 -0.970636
v 2.039738 8.477591 0.032821
v -1.461429 4.037414 2.620945
v 0.032824 4.037414 3.021328
v 0.032824 6.000856 2.750798
v -1.326164 6.000856 2.386658
v 2.620945 4.037414 1.527075
v 3.021329 4.037415 0.032822
v 2.750798 6.000856 0.032822
v 2.386658 6.000856 1.391810
v -1.461432 4.037413 -2.555299
v -2.555300 4.037415 -1.461430
v -2.321013 6.000856 -1.326165
v -1.326167 6.000857 -2.321014
v 1.527076 4.037413 -2.555300
v 0.032824 4.037413 -2.955684
v 0.032824 6.000857 -2.685154
v 1.391810 6.000857 -2.321014
v -2.555299 4.037414 1.527076
v -1.461429 4.037414 2.620945
v -1.326164 6.000856 2.386658
v -2.321012 6.000856 1.391810
v 1.527076 4.037414 2.620944
v 2.620945 4.037414 1.527075
v 2.386658 6.000856 1.391810
v 1.391810 6.000856 2.386658
v 0.032824 4.037413 -2.955684
v -1.461432 4.037413 -2.555299
v -1.326167 6.000857 -2.321014
v 0.032824 6.000857 -2.685154
v 2.620945 4.037415 -1.461431
v 1.527076 4.037413 -2.555300
v 1.391810 6.000857 -2.321014
v 2.386658 6.000856 -1.326166
v -2.955683 4.037415 0.032823
v -2.555299 4.037414 1.527076
v -2.321012 6.000856 1.391810
v -2.685153 6.000856 0.032823
v 0.032824 4.037414 3.021328
v 1.527076 4.037414 2.620944
v 1.391810 6.000856 2.386658
v 0.032824 6.000856 2.750798
v 3.021329 4.037415 0.032822
v 2.620945 4.037415 -1.461431
v 2.386658 6.000856 -1.326166
v 2.750798 6.000856 0.032822
v 0.032824 5.993273 -2.031232
v 1.064850 5.993273 -1.754701
v 1.391810 6.000857 -2.321014
v 0.032824 6.000857 -2.685154
v 1.064850 5.993273 -1.754701
v 1.820345 5.993273 -0.999205
v 2.386658 6.000856 -1.326166
v 1.391810 6.000857 -2.321014
v 1.820345 5.993273 -0.999205
v 2.096875 5.993273 0.032822
v 2.750798 6.000856 0.032822
v 2.386658 6.000856 -1.326166
v 2.096875 5.993273 0.032822
v 1.820344 5.993273 1.064849
v 2.386658 6.000856 1.391810
v 2.750798 6.000856 0.032822
v 1.820344 5.993273 1.064849
v 1.064850 5.993272 1.820344
v 1.391810 6.000856 2.386658
v 2.386658 6.000856 1.391810
v 1.064850 5.993272 1.820344
v 0.032824 5.993272 2.096875
v 0.032824 6.000856 2.750798
v 1.391810 6.000856 2.386658
v 0.032824 5.993272 2.096875
v -0.999203 5.993272 1.820345
v -1.326164 6.000856 2.386658
v 0.032824 6.000856 2.750798
v -0.999203 5.993272 1.820345
v -1.754699 5.993273 1.064849
v -2.321012 6.000856 1.391810
v -1.326164 6.000856 2.386658
v -1.754699 5.993273 1.064849
v -2.031230 5.993273 0.032823
v -2.685153 6.000856 0.032823
v -2.321012 6.000856 1.391810
v -2.031230 5.993273 0.032823
v -1.754700 5.993273 -0.999204
v -2.321013 6.000856 -1.326165
v -2.685153 6.000856 0.032823
v -1.754700 5.993273 -0.999204
v -0.999205 5.993273 -1.754700
v -1.326167 6.000857 -2.321014
v -2.321013 6.000856 -1.326165
v -0.999205 5.993273 -1.754700
v 0.032824 5.993273 -2.031232
v 0.032824 6.000857 -2.685154
v -1.326167 6.000857 -2.321014
v -1.754700 5.993273 -0.999204
v -2.031230 5.993273 0.032823
v -1.974092 8.477591 0.032822
v -1.705217 8.477591 -0.970636
v -0.999203 5.993272 1.820345
v 0.032824 5.993272 2.096875
v 0.032824 8.477591 2.039737
v -0.970634 8.477591 1.770862
v 1.820344 5.993273 1.064849
v 2.096875 5.993273 0.032822
v 2.039738 8.477591 0.032821
v 1.770863 8.477591 1.036281
v -0.999205 5.993273 -1.754700
v -1.754700 5.993273 -0.999204
v -1.705217 8.477591 -0.970636
v -0.970636 8.477591 -1.705218
v 1.064850 5.993273 -1.754701
v 0.032824 5.993273 -2.031232
v 0.032824 8.477591 -1.974094
v 1.036281 8.477591 -1.705218
v -1.754699 5.993273 1.064849
v -0.999203 5.993272 1.820345
v -0.970634 8.477591 1.770862
v -1.705217 8.477591 1.036281
v 1.064850 5.993272 1.820344
v 1.820344 5.993273 1.064849
v 1.770863 8.477591 1.036281
v 1.036281 8.477591 1.770862
v 0.032824 5.993273 -2.031232
v -0.999205 5.993273 -1.754700
v -0.970636 8.477591 -1.705218
v 0.032824 8.477591 -1.974094
v 1.820345 5.993273 -0.999205
v 1.064850 5.993273 -1.754701
v 1.036281 8.477591 -1.705218
v 1.770863 8.477591 -0.970636
v -2.031230 5.993273 0.032823
v -1.754699 5.993273 1.064849
v -1.705217 8.477591 1.036281
v -1.974092 8.477591 0.032822
v 0.032824 5.993272 2.096875
v 1.064850 5.993272 1.820344
v 1.036281 8.477591 1.770862
v 0.032824 8.477591 2.039737
v 2.750798 -2.721038 0.032822
v 2.386658 -2.721039 -1.326167
v 2.620945 -0.757595 -1.461432
v 3.021329 -0.757595 0.032822
v 3.021329 -0.757595 0.032822
v 2.620945 -0.757595 -1.461432
v 2.761616 1.639910 -1.542649
v 3.183762 1.639910 0.032821
v 3.183762 1.639910 0.032821
v 2.761616 1.639910 -1.542649
v 2.620945 4.037415 -1.461431
v 3.021329 4.037415 0.032822
v 0.032824 -2.721038 2.750797
v 1.391810 -2.721038 2.386658
v 1.527076 -0.757595 2.620944
v 0.032824 -0.757596 3.021328
v 0.032824 -0.757596 3.021328
v 1.527076 -0.757595 2.620944
v 1.608293 1.639909 2.761615
v 0.032824 1.639909 3.183761
v 0.032824 1.639909 3.183761
v 1.608293 1.639909 2.761615
v 1.527076 4.037414 2.620944
v 0.032824 4.037414 3.021328
v -2.685153 -2.721038 0.032823
v -2.321012 -2.721038 1.391811
v -2.555299 -0.757595 1.527076
v -2.955683 -0.757595 0.032823
v -2.955683 -0.757595 0.032823
v -2.555299 -0.757595 1.527076
v -2.695971 1.639910 1.608292
v -3.118116 1.639910 0.032823
v -3.118116 1.639910 0.032823
v -2.695971 1.639910 1.608292
v -2.555299 4.037414 1.527076
v -2.955683 4.037415 0.032823
v 2.386658 -2.721039 -1.326167
v 1.391810 -2.721038 -2.321014
v 1.527076 -0.757595 -2.555301
v 2.620945 -0.757595 -1.461432
v 2.620945 -0.757595 -1.461432
v 1.527076 -0.757595 -2.555301
v 1.608293 1.639910 -2.695973
v 2.761616 1.639910 -1.542649
v 2.761616 1.639910 -1.542649
v 1.608293 1.639910 -2.695973
v 1.527076 4.037413 -2.555300
v 2.620945 4.037415 -1.461431
v 0.032824 -2.721038 -2.685154
v -1.326167 -2.721038 -2.321013
v -1.461432 -0.757595 -2.555300
v 0.032824 -0.757596 -2.955685
v 0.032824 -0.757596 -2.955685
v -1.461432 -0.757595 -2.555300
v -1.542650 1.639910 -2.695972
v 0.032824 1.639910 -3.118119
v 0.032824 1.639910 -3.118119
v -1.542650 1.639910 -2.695972
v -1.461432 4.037413 -2.555299
v 0.032824 4.037413 -2.955684
v 1.391810 -2.721038 2.386658
v 2.386658 -2.721038 1.391810
v 2.620945 -0.757595 1.527075
v 1.527076 -0.757595 2.620944
v 1.527076 -0.757595 2.620944
v 2.620945 -0.757595 1.527075
v 2.761616 1.639910 1.608292
v 1.608293 1.639909 2.761615
v 1.608293 1.639909 2.761615
v 2.761616 1.639910 1.608292
v 2.620945 4.037414 1.527075
v 1.527076 4.037414 2.620944
v -2.321012 -2.721038 1.391811
v -1.326164 -2.721038 2.386659
v -1.461429 -0.757595 2.620945
v -2.555299 -0.757595 1.527076
v -2.555299 -0.757595 1.527076
v -1.461429 -0.757595 2.620945
v -1.542646 1.639909 2.761616
v -2.695971 1.639910 1.608292
v -2.695971 1.639910 1.608292
v -1.542646 1.639909 2.761616
v -1.461429 4.037414 2.620945
v -2.555299 4.037414 1.527076
v 1.391810 -2.721038 -2.321014
v 0.032824 -2.721038 -2.685154
v 0.032824 -0.757596 -2.955685
v 1.527076 -0.757595 -2.555301
v 1.527076 -0.757595 -2.555301
v 0.032824 -0.757596 -2.955685
v 0.032824 1.639910 -3.118119
v 1.608293 1.639910 -2.695973
v 1.608293 1.639910 -2.695973
v 0.032824 1.639910 -3.118119
v 0.032824 4.037413 -2.955684
v 1.527076 4.037413 -2.555300
v -1.326167 -2.721038 -2.321013
v -2.321013 -2.721039 -1.326165
v -2.555300 -0.757595 -1.461430
v -1.461432 -0.757595 -2.555300
v -1.461432 -0.757595 -2.555300
v -2.555300 -0.757595 -1.461430
v -2.695972 1.639910 -1.542647
v -1.542650 1.639910 -2.695972
v -1.542650 1.639910 -2.695972
v -2.695972 1.639910 -1.542647
v -2.555300 4.037415 -1.461430
v -1.461432 4.037413 -2.555299
v 2.386658 -2.721038 1.391810
v 2.750798 -2.721038 0.032822
v 3.021329 -0.757595 0.032822
v 2.620945 -0.757595 1.527075
v 2.620945 -0.757595 1.527075
v 3.021329 -0.757595 0.032822
v 3.183762 1.639910 0.032821
v 2.761616 1.639910 1.608292
v 2.761616 1.639910 1.608292
v 3.183762 1.639910 0.032821
v 3.021329 4.037415 0.032822
v 2.620945 4.037414 1.527075
v -1.326164 -2.721038 2.386659
v 0.032824 -2.721038 2.750797
v 0.032824 -0.757596 3.021328
v -1.461429 -0.757595 2.620945
v -1.461429 -0.757595 2.620945
v 0.032824 -0.757596 3.021328
v 0.032824 1.639909 3.183761
v -1.542646 1.639909 2.761616
v -1.542646 1.639909 2.761616
v 0.032824 1.639909 3.183761
v 0.032824 4.037414 3.021328
v -1.461429 4.037414 2.620945
v -2.321013 -2.721039 -1.326165
v -2.685153 -2.721038 0.032823
v -2.955683 -0.757595 0.032823
v -2.555300 -0.757595 -1.461430
v -2.555300 -0.757595 -1.461430
v -2.955683 -0.757595 0.032823
v -3.118116 1.639910 0.032823
v -2.695972 1.639910 -1.542647
v -2.695972 1.639910 -1.542647
v -3.118116 1.639910 0.032823
v -2.955683 4.037415 0.032823
v -2.555300 4.037415 -1.461430
v -5.633188 -8.514745 -3.238449
v -5.633185 -8.514746 3.304097
v -6.509722 -8.514745 0.032825
v -3.238453 -8.514745 -5.633187
v -3.238447 -8.514745 5.698833
v 0.032823 -8.514745 -6.509724
v 0.032824 -8.514745 6.575366
v 3.304095 -8.514745 -5.633189
v 3.304096 -8.514745 5.698833
v 5.698833 -8.514745 -3.238451
v 5.698832 -8.514746 3.304095
v 6.575367 -8.514745 0.032822
v -1.705217 8.477591 1.036281
v -1.705217 8.477591 -0.970636
v -1.974092 8.477591 0.032822
v -0.970636 8.477591 -1.705218
v -0.970634 8.477591 1.770862
v 0.032824 8.477591 -1.974094
v 0.032824 8.477591 2.039737
v 1.036281 8.477591 1.770862
v 1.036281 8.477591 -1.705218
v 1.770863 8.477591 -0.970636
v 1.770863 8.477591 1.036281
v 2.039738 8.477591 0.032821
v 2.058471 -2.689615 -3.475707
vn 0.2588 0.0000 -0.9659
vn 0.7071 0.0000 -0.7071
vn 0.9659 0.0000 -0.2588
vn 0.9659 0.0000 0.2588
vn 0.7071 0.0000 0.7071
vn 0.2588 0.0000 0.9659
vn -0.2588 -0.0000 0.9659
vn -0.7071 0.0000 0.7071
vn -0.9659 0.0000 0.2588
vn -0.9659 0.0000 -0.2588
vn -0.2490 0.2723 0.9294
vn -0.7071 0.0000 -0.7071
vn -0.2588 -0.0000 -0.9659
vn 0.0000 1.0000 0.0000
vn -0.9575 0.1319 -0.2566
vn 0.9294 0.2723 0.2490
vn -0.6804 0.2723 -0.6804
vn 0.2490 0.2723 -0.9294
vn -0.6804 0.2723 0.6804
vn 0.6804 0.2723 0.6804
vn -0.2490 0.2723 -0.9294
vn 0.6804 0.2723 -0.6804
vn -0.9294 0.2723 0.2490
vn 0.2490 0.2723 0.9294
vn 0.9294 0.2723 -0.2490
vn -0.9294 0.2723 -0.2490
vn -0.0063 0.9997 0.0236
vn -0.0172 0.9997 0.0172
vn -0.0236 0.9997 0.0063
vn -0.0236 0.9997 -0.0063
vn -0.0172 0.9997 -0.0172
vn -0.0063 0.9997 -0.0236
vn 0.0063 0.9997 -0.0236
vn 0.0172 0.9997 -0.0172
vn 0.0236 0.9997 -0.0063
vn 0.0236 0.9997 0.0063
vn 0.0172 0.9997 0.0172
vn 0.0063 0.9997 0.0236
vn 0.9657 0.0222 -0.2588
vn -0.2566 0.1319 0.9575
vn 0.9575 0.1319 0.2566
vn -0.7009 0.1319 -0.7009
vn 0.2566 0.1319 -0.9575
vn -0.7009 0.1319 0.7009
vn 0.7009 0.1319 0.7009
vn -0.2566 0.1319 -0.9575
vn 0.7009 0.1319 -0.7009
vn -0.9575 0.1319 0.2566
vn 0.2566 0.1319 0.9575
vn 0.9575 0.1319 -0.2566
vn -0.0031 0.9999 0.0116
vn -0.0085 0.9999 0.0085
vn -0.0116 0.9999 0.0031
vn -0.0116 0.9999 -0.0031
vn -0.0085 0.9999 -0.0085
vn -0.0031 0.9999 -0.0116
vn 0.0031 0.9999 -0.0116
vn 0.0085 0.9999 -0.0085
vn 0.0116 0.9999 -0.0031
vn 0.0116 0.9999 0.0031
vn 0.0085 0.9999 0.0085
vn 0.0031 0.9999 0.0116
vn -0.9657 0.0222 -0.2588
vn -0.2588 0.0222 0.9657
vn 0.9657 0.0222 0.2588
vn -0.7069 0.0222 -0.7069
vn 0.2588 0.0222 -0.9657
vn -0.7069 0.0222 0.7069
vn 0.7069 0.0222 0.7069
vn -0.2588 0.0222 -0.9657
vn 0.7069 0.0222 -0.7069
vn -0.9657 0.0222 0.2588
vn 0.2588 0.0222 0.9657
vn 0.9575 -0.1319 -0.2566
vn 0.9639 -0.0653 -0.2583
vn 0.9639 0.0653 -0.2583
vn 0.2566 -0.1319 0.9575
vn 0.2583 -0.0653 0.9639
vn 0.2583 0.0653 0.9639
vn -0.9575 -0.1319 0.2566
vn -0.9639 -0.0653 0.2583
vn -0.9639 0.0653 0.2583
vn 0.7009 -0.1319 -0.7009
vn 0.7056 -0.0653 -0.7056
vn 0.7056 0.0653 -0.7056
vn -0.2566 -0.1319 -0.9575
vn -0.2583 -0.0653 -0.9639
vn -0.2583 0.0653 -0.9639
vn 0.7009 -0.1319 0.7009
vn 0.7056 -0.0653 0.7056
vn 0.7056 0.0653 0.7056
vn -0.7009 -0.1319 0.7009
vn -0.7056 -0.0653 0.7056
vn -0.7056 0.0653 0.7056
vn 0.2566 -0.1319 -0.9575
vn 0.2583 -0.0653 -0.9639
vn 0.2583 0.0653 -0.9639
vn -0.7009 -0.1319 -0.7009
vn -0.7056 -0.0653 -0.7056
vn -0.7056 0.0653 -0.7056
vn 0.9575 -0.1319 0.2566
vn 0.9639 -0.0653 0.2583
vn 0.9639 0.0653 0.2583
vn -0.2566 -0.1319 0.9575
vn -0.2583 -0.0653 0.9639
vn -0.2583 0.0653 0.9639
vn -0.9575 -0.1319 -0.2566
vn -0.9639 -0.0653 -0.2583
vn -0.9639 0.0653 -0.2583
vn -0.0000 -1.0000 -0.0000
usemtl Metal
s off
f 1//1 2//1 3//1
f 1//1 3//1 4//1
f 5//2 6//2 7//2
f 5//2 7//2 8//2
f 9//3 10//3 11//3
f 9//3 11//3 12//3
f 13//4 14//4 15//4
f 13//4 15//4 16//4
f 17//5 18//5 19//5
f 17//5 19//5 20//5
f 21//6 22//6 23//6
f 21//6 23//6 24//6
f 25//7 26//7 27//7
f 25//7 27//7 28//7
f 29//8 30//8 31//8
f 29//8 31//8 32//8
f 33//9 34//9 35//9
f 33//9 35//9 36//9
f 37//10 38//10 39//10
f 37//10 39//10 40//10
f 41//11 42//11 43//11
f 41//11 43//11 44//11
f 45//12 46//12 47//12
f 45//12 47//12 48//12
f 49//13 50//13 51//13
f 49//13 51//13 52//13
f 53//14 54//14 55//14
f 53//14 55//14 56//14
f 57//14 58//14 59//14
f 57//14 59//14 60//14
f 58//14 61//14 62//14
f 58//14 62//14 59//14
f 61//14 63//14 64//14
f 61//14 64//14 62//14
f 63//14 65//14 66//14
f 63//14 66//14 64//14
f 65//14 67//14 68//14
f 65//14 68//14 66//14
f 67//14 69//14 70//14
f 67//14 70//14 68//14
f 71//14 72//14 73//14
f 71//14 73//14 74//14
f 75//14 76//14 77//14
f 75//14 77//14 78//14
f 76//14 79//14 80//14
f 76//14 80//14 77//14
f 79//14 81//14 82//14
f 79//14 82//14 80//14
f 83//14 84//14 85//14
f 83//14 85//14 86//14
f 87//15 88//15 89//15
f 87//15 89//15 90//15
f 91//16 92//16 93//16
f 91//16 93//16 94//16
f 95//17 96//17 97//17
f 95//17 97//17 98//17
f 99//18 100//18 101//18
f 102//19 103//19 104//19
f 102//19 104//19 105//19
f 106//20 107//20 108//20
f 106//20 108//20 109//20
f 110//21 111//21 112//21
f 110//21 112//21 113//21
f 114//22 115//22 116//22
f 114//22 116//22 117//22
f 118//23 119//23 120//23
f 118//23 120//23 121//23
f 122//24 123//24 124//24
f 122//24 124//24 125//24
f 126//25 127//25 128//25
f 126//25 128//25 129//25
f 130//26 131//26 132//26
f 130//26 132//26 133//26
f 134//27 135//27 136//27
f 134//27 136//27 137//27
f 138//28 139//28 140//28
f 138//28 140//28 141//28
f 142//29 143//29 144//29
f 142//29 144//29 145//29
f 146//30 147//30 148//30
f 146//30 148//30 149//30
f 150//31 151//31 152//31
f 150//31 152//31 153//31
f 154//32 155//32 156//32
f 154//32 156//32 157//32
f 158//33 159//33 160//33
f 158//33 160//33 161//33
f 162//34 163//34 164//34
f 162//34 164//34 165//34
f 166//35 167//35 168//35
f 166//35 168//35 169//35
f 170//36 171//36 172//36
f 170//36 172//36 173//36
f 174//37 175//37 176//37
f 174//37 176//37 177//37
f 178//38 179//38 180//38
f 178//38 180//38 181//38
f 182//39 183//39 184//39
f 182//39 184//39 185//39
f 186//40 187//40 188//40
f 186//40 188//40 189//40
f 190//41 191//41 192//41
f 190//41 192//41 193//41
f 194//42 195//42 196//42
f 194//42 196//42 197//42
f 198//43 199//43 200//43
f 198//43 200//43 201//43
f 202//44 203//44 204//44
f 202//44 204//44 205//44
f 206//45 207//45 208//45
f 206//45 208//45 209//45
f 210//46 211//46 212//46
f 210//46 212//46 213//46
f 214//47 215//47 216//47
f 214//47 216//47 217//47
f 218//48 219//48 220//48
f 218//48 220//48 221//48
f 222//49 223//49 224//49
f 222//49 224//49 225//49
f 226//50 227//50 228//50
f 226//50 228//50 229//50
f 230//51 231//51 232//51
f 230//51 232//51 233//51
f 234//52 235//52 236//52
f 234//52 236//52 237//52
f 238//53 239//53 240//53
f 238//53 240//53 241//53
f 242//54 243//54 244//54
f 242//54 244//54 245//54
f 246//55 247//55 248//55
f 246//55 248//55 249//55
f 250//56 251//56 252//56
f 250//56 252//56 253//56
f 254//57 255//57 256//57
f 254//57 256//57 257//57
f 258//58 259//58 260//58
f 258//58 260//58 261//58
f 262//59 263//59 264//59
f 262//59 264//59 265//59
f 266//60 267//60 268//60
f 266//60 268//60 269//60
f 270//61 271//61 272//61
f 270//61 272//61 273//61
f 274//62 275//62 276//62
f 274//62 276//62 277//62
f 278//63 279//63 280//63
f 278//63 280//63 281//63
f 282//64 283//64 284//64
f 282//64 284//64 285//64
f 286//65 287//65 288//65
f 286//65 288//65 289//65
f 290//66 291//66 292//66
f 290//66 292//66 293//66
f 294//67 295//67 296//67
f 294//67 296//67 297//67
f 298//68 299//68 300//68
f 298//68 300//68 301//68
f 302//69 303//69 304//69
f 302//69 304//69 305//69
f 306//70 307//70 308//70
f 306//70 308//70 309//70
f 310//71 311//71 312//71
f 310//71 312//71 313//71
f 314//72 315//72 316//72
f 314//72 316//72 317//72
f 318//73 319//73 320//73
f 318//73 320//73 321//73
f 322//74 323//74 324//74
f 322//74 324//74 325//74
f 326//75 327//75 328//75
f 326//75 328//75 329//75
f 330//76 331//76 332//76
f 330//76 332//76 333//76
f 334//77 335//77 336//77
f 334//77 336//77 337//77
f 338//78 339//78 340//78
f 338//78 340//78 341//78
f 342//79 343//79 344//79
f 342//79 344//79 345//79
f 346//80 347//80 348//80
f 346//80 348//80 349//80
f 350//81 351//81 352//81
f 350//81 352//81 353//81
f 354//82 355//82 356//82
f 354//82 356//82 357//82
f 358//83 359//83 360//83
f 358//83 360//83 361//83
f 362//84 363//84 364//84
f 362//84 364//84 365//84
f 366//85 367//85 368//85
f 366//85 368//85 369//85
f 370//86 371//86 372//86
f 370//86 372//86 373//86
f 374//87 375//87 376//87
f 374//87 376//87 377//87
f 378//88 379//88 380//88
f 378//88 380//88 381//88
f 382//89 383//89 384//89
f 382//89 384//89 385//89
f 386//90 387//90 388//90
f 386//90 388//90 389//90
f 390//91 391//91 392//91
f 390//91 392//91 393//91
f 394//92 395//92 396//92
f 394//92 396//92 397//92
f 398//93 399//93 400//93
f 398//93 400//93 401//93
f 402//94 403//94 404//94
f 402//94 404//94 405//94
f 406//95 407//95 408//95
f 406//95 408//95 409//95
f 410//96 411//96 412//96
f 410//96 412//96 413//96
f 414//97 415//97 416//97
f 414//97 416//97 417//97
f 418//98 419//98 420//98
f 418//98 420//98 421//98
f 422//99 423//99 424//99
f 422//99 424//99 425//99
f 426//100 427//100 428//100
f 426//100 428//100 429//100
f 430//101 431//101 432//101
f 430//101 432//101 433//101
f 434//102 435//102 436//102
f 434//102 436//102 437//102
f 438//103 439//103 440//103
f 438//103 440//103 441//103
f 442//104 443//104 444//104
f 442//104 444//104 445//104
f 446//105 447//105 448//105
f 446//105 448//105 449//105
f 450//106 451//106 452//106
f 450//106 452//106 453//106
f 454//107 455//107 456//107
f 454//107 456//107 457//107
f 458//108 459//108 460//108
f 458//108 460//108 461//108
f 462//109 463//109 464//109
f 462//109 464//109 465//109
f 466//110 467//110 468//110
f 467//110 466//110 469//110
f 467//110 469//110 470//110
f 470//110 469//110 471//110
f 470//110 471//110 472//110
f 472//110 471//110 473//110
f 472//110 473//110 474//110
f 474//110 473//110 475//110
f 474//110 475//110 476//110
f 476//110 475//110 477//110
f 478//14 479//14 480//14
f 479//14 478//14 481//14
f 481//14 478//14 482//14
f 481//14 482//14 483//14
f 483//14 482//14 484//14
f 483//14 484//14 485//14
f 483//14 485//14 486//14
f 486//14 485//14 487//14
f 487//14 485//14 488//14
f 487//14 488//14 489//14
s 1
f 99//18 101//18 490//18
