# Blender v3.0.0 OBJ File: ''
# www.blender.org
mtllib House.mtl
o Plane.015_Plane.001
v 0.747500 0.000676 -0.420469
v 0.420469 0.000676 -0.560625
v 0.747500 0.000676 -0.560625
v 0.420469 0.187551 -0.420469
v 0.420469 0.000676 -0.420469
v 0.747500 0.000676 -0.700781
v 0.747500 0.187551 -0.560625
v 0.747500 0.187551 -0.420469
v 0.420469 0.000676 -0.700781
v 0.420469 0.187551 -0.560625
v 0.420469 0.187551 -0.700781
v 0.747500 0.187551 -0.700781
v 0.373750 0.066083 -0.420469
v 0.373750 0.000676 -0.700781
v 0.373750 0.000676 -0.420469
v 0.420469 0.000676 -0.420469
v 0.420469 0.066083 -0.700781
v 0.373750 0.066083 -0.700781
v 0.420469 0.000676 -0.429812
v 0.383094 0.066083 -0.429812
v 0.383094 0.000676 -0.429812
v 0.420469 0.066083 -0.691437
v 0.383094 0.000676 -0.691437
v 0.383094 0.066083 -0.691437
v 0.420469 0.066083 -0.420469
v -0.747500 0.000676 -0.700781
v -0.420469 0.000676 -0.560625
v -0.747500 0.000676 -0.560625
v -0.420469 0.187551 -0.700781
v -0.420469 0.000676 -0.700781
v -0.747500 0.000676 -0.420469
v -0.747500 0.187551 -0.560625
v -0.747500 0.187551 -0.700781
v -0.420469 0.000676 -0.420469
v -0.420469 0.187551 -0.560625
v -0.420469 0.187551 -0.420469
v -0.747500 0.187551 -0.420469
v -0.373750 0.066083 -0.700781
v -0.373750 0.000676 -0.420469
v -0.373750 0.000676 -0.700781
v -0.420469 0.000676 -0.700781
v -0.420469 0.066083 -0.420469
v -0.373750 0.066083 -0.420469
v -0.420469 0.000676 -0.691437
v -0.383094 0.066083 -0.691437
v -0.383094 0.000676 -0.691437
v -0.420469 0.066083 -0.429812
v -0.383094 0.000676 -0.429812
v -0.383094 0.066083 -0.429812
v -0.420469 0.066083 -0.700781
v 0.747500 0.000676 0.700781
v 0.420469 0.000676 0.560625
v 0.747500 0.000676 0.560625
v 0.420469 0.187551 0.700781
v 0.420469 0.000676 0.700781
v 0.747500 0.000676 0.420469
v 0.747500 0.187551 0.560625
v 0.747500 0.187551 0.700781
v 0.420469 0.000676 0.420469
v 0.420469 0.187551 0.560625
v 0.420469 0.187551 0.420469
v 0.747500 0.187551 0.420469
v 0.373750 0.066082 0.700781
v 0.373750 0.000676 0.420469
v 0.373750 0.000676 0.700781
v 0.420469 0.000676 0.700781
v 0.420469 0.066082 0.420469
v 0.373750 0.066082 0.420469
v 0.420469 0.000676 0.691437
v 0.383094 0.066082 0.691437
v 0.383094 0.000676 0.691437
v 0.420469 0.066082 0.429812
v 0.383094 0.000676 0.429812
v 0.383094 0.066082 0.429812
v 0.420469 0.066082 0.700781
v -0.747500 0.000676 0.420469
v -0.420469 0.000676 0.560625
v -0.747500 0.000676 0.560625
v -0.420469 0.187551 0.420469
v -0.420469 0.000676 0.420469
v -0.747500 0.000676 0.700781
v -0.747500 0.187551 0.560625
v -0.747500 0.187551 0.420469
v -0.420469 0.000676 0.700781
v -0.420469 0.187551 0.560625
v -0.420469 0.187551 0.700781
v -0.747500 0.187551 0.700781
v -0.373750 0.066082 0.420469
v -0.373750 0.000676 0.700781
v -0.373750 0.000676 0.420469
v -0.420469 0.000676 0.420469
v -0.420469 0.066082 0.700781
v -0.373750 0.066082 0.700781
v -0.420469 0.000676 0.429812
v -0.383094 0.066082 0.429812
v -0.383094 0.000676 0.429812
v -0.420469 0.066082 0.691437
v -0.383094 0.000676 0.691437
v -0.383094 0.066082 0.691437
v -0.420469 0.066082 0.420469
v 0.420469 0.000676 -0.700781
v 0.420469 0.066083 -0.429812
v 0.420469 0.000676 -0.691437
v -0.420469 0.000676 -0.420469
v -0.420469 0.066083 -0.691437
v -0.420469 0.000676 -0.429812
v 0.420469 0.000676 0.420469
v 0.420469 0.066082 0.691437
v 0.420469 0.000676 0.429812
v -0.420469 0.000676 0.700781
v -0.420469 0.066082 0.429812
v -0.420469 0.000676 0.691437
v 0.373750 0.280989 -0.560625
v 0.747500 0.187551 -0.420469
v 0.747500 0.280989 -0.560625
v 0.373750 0.187551 -0.700781
v 0.747500 0.187551 -0.700781
v 0.747500 0.187551 -0.560625
v 0.373750 0.187551 -0.560625
v 0.373750 0.187551 -0.420469
v -0.373750 0.280989 -0.560625
v -0.747500 0.187551 -0.700781
v -0.747500 0.280989 -0.560625
v -0.373750 0.187551 -0.420469
v -0.747500 0.187551 -0.420469
v -0.747500 0.187551 -0.560625
v -0.373750 0.187551 -0.560625
v -0.373750 0.187551 -0.700781
v 0.373750 0.280989 0.560625
v 0.747500 0.187551 0.700781
v 0.747500 0.280989 0.560625
v 0.373750 0.187551 0.420469
v 0.747500 0.187551 0.420469
v 0.747500 0.187551 0.560625
v 0.373750 0.187551 0.560625
v 0.373750 0.187551 0.700781
v -0.373750 0.280989 0.560625
v -0.747500 0.187551 0.420469
v -0.747500 0.280989 0.560625
v -0.373750 0.187551 0.700781
v -0.747500 0.187551 0.700781
v -0.747500 0.187551 0.560625
v -0.373750 0.187551 0.560625
v -0.373750 0.187551 0.420469
v 0.124583 0.031146 -0.124583
v 0.996666 0.000000 -0.124583
v 0.124583 0.000000 -0.124583
v 0.996666 0.031146 -0.996666
v 0.124583 0.000000 -0.996666
v 0.996666 0.000000 -0.996666
v 0.124583 0.031146 -0.996666
v 0.996666 0.031146 -0.124583
v 0.988445 0.000000 -0.132805
v 0.132805 0.031146 -0.132805
v 0.132805 0.000000 -0.132805
v 0.132805 0.000000 -0.988445
v 0.988445 0.031146 -0.988445
v 0.988445 0.000000 -0.988445
v 0.132805 0.031146 -0.988445
v 0.988445 0.031146 -0.132805
v -0.124583 0.031146 -0.996666
v -0.996666 0.000000 -0.996666
v -0.124583 0.000000 -0.996666
v -0.996666 0.031146 -0.124583
v -0.124583 0.000000 -0.124583
v -0.996666 0.000000 -0.124583
v -0.124583 0.031146 -0.124583
v -0.996666 0.031146 -0.996666
v -0.988445 0.000000 -0.988445
v -0.132805 0.031146 -0.988445
v -0.132805 0.000000 -0.988445
v -0.132805 0.000000 -0.132805
v -0.988445 0.031146 -0.132805
v -0.988445 0.000000 -0.132805
v -0.132805 0.031146 -0.132805
v -0.988445 0.031146 -0.988445
v 0.124583 0.031146 0.996666
v 0.996666 -0.000000 0.996666
v 0.124583 -0.000000 0.996666
v 0.996666 0.031146 0.124583
v 0.124583 -0.000000 0.124583
v 0.996666 -0.000000 0.124583
v 0.124583 0.031146 0.124583
v 0.996666 0.031146 0.996666
v 0.988445 -0.000000 0.988445
v 0.132805 0.031146 0.988445
v 0.132805 -0.000000 0.988445
v 0.132805 -0.000000 0.132805
v 0.988445 0.031146 0.132805
v 0.988445 -0.000000 0.132805
v 0.132805 0.031146 0.132805
v 0.988445 0.031146 0.988445
v -0.124583 0.031146 0.124583
v -0.996666 -0.000000 0.124583
v -0.124583 -0.000000 0.124583
v -0.996666 0.031146 0.996666
v -0.124583 -0.000000 0.996666
v -0.996666 -0.000000 0.996666
v -0.124583 0.031146 0.996666
v -0.996666 0.031146 0.124583
v -0.988445 -0.000000 0.132805
v -0.132805 0.031146 0.132805
v -0.132805 -0.000000 0.132805
v -0.132805 -0.000000 0.988445
v -0.988445 0.031146 0.988445
v -0.988445 -0.000000 0.988445
v -0.132805 0.031146 0.988445
v -0.988445 0.031146 0.132805
v -0.124583 0.006867 -0.124583
v -0.747500 0.006867 0.124583
v -0.747500 0.006867 -0.124583
v 0.124583 0.006867 -0.996666
v -0.124583 0.006867 -0.747500
v -0.124583 0.006867 -0.996666
v 0.747500 0.006867 -0.124583
v 0.996666 0.006867 0.124583
v 0.747500 0.006867 0.124583
v 0.124583 0.006867 -0.747500
v -0.996666 0.006867 0.124583
v -0.124583 0.006867 0.747500
v 0.124583 0.006867 0.996666
v -0.124583 0.006867 0.996666
v -0.124583 0.006867 0.124583
v 0.124584 0.006867 0.747500
v 0.124583 0.006867 0.124583
v 0.996666 0.006867 -0.124583
v 0.124583 0.006867 -0.124583
v -0.996666 0.006867 -0.124583
v 0.348833 0.019325 0.012458
v 0.249167 0.019325 -0.012458
v 0.249167 0.019325 0.012458
v 0.548166 0.019325 0.012458
v 0.448500 0.019325 -0.012458
v 0.448500 0.019325 0.012458
v -0.249167 0.019325 0.012458
v -0.348833 0.019325 -0.012458
v -0.348833 0.019325 0.012458
v -0.448500 0.019325 0.012458
v -0.548166 0.019325 -0.012458
v -0.548166 0.019325 0.012458
v -0.647833 0.019325 0.012458
v -0.747500 0.019325 -0.012458
v -0.747500 0.019325 0.012458
v 0.747500 0.019325 0.012458
v 0.647833 0.019325 -0.012458
v 0.647833 0.019325 0.012458
v 0.012458 0.019325 -0.348833
v -0.012458 0.019325 -0.249167
v 0.012458 0.019325 -0.249167
v 0.012458 0.019325 -0.548166
v -0.012458 0.019325 -0.448500
v 0.012458 0.019325 -0.448500
v 0.012458 0.019325 -0.747500
v -0.012458 0.019325 -0.647833
v 0.012458 0.019325 -0.647833
v 0.012458 0.019325 0.249167
v -0.012458 0.019325 0.348833
v 0.012458 0.019325 0.348833
v 0.012458 0.019325 0.448500
v -0.012458 0.019325 0.548166
v 0.012458 0.019325 0.548166
v 0.012458 0.019325 0.647833
v -0.012458 0.019325 0.747500
v 0.012458 0.019325 0.747500
v 0.348833 0.019325 -0.012458
v 0.548166 0.019325 -0.012458
v -0.249167 0.019325 -0.012458
v -0.448500 0.019325 -0.012458
v -0.647833 0.019325 -0.012458
v 0.747500 0.019325 -0.012458
v -0.012458 0.019325 -0.348833
v -0.012458 0.019325 -0.548166
v -0.012458 0.019325 -0.747500
v -0.012458 0.019325 0.249167
v -0.012458 0.019325 0.448500
v -0.012458 0.019325 0.647833
vn 0.0000 -1.0000 -0.0000
vn 0.0000 0.0000 1.0000
vn 1.0000 0.0000 0.0000
vn -1.0000 0.0000 0.0000
vn 0.0000 0.0000 -1.0000
vn -0.0000 1.0000 0.0000
vn 0.0000 0.8320 0.5547
vn 0.0000 0.8320 -0.5547
usemtl Walls.001
s 1
f 1//1 2//1 3//1
f 1//2 4//2 5//2
f 6//3 7//3 3//3
f 3//3 8//3 1//3
f 3//1 9//1 6//1
f 5//4 10//4 2//4
f 2//4 11//4 9//4
f 9//5 12//5 6//5
f 13//4 14//4 15//4
f 16//2 13//2 15//2
f 17//5 14//5 18//5
f 19//2 20//2 21//2
f 22//5 23//5 24//5
f 24//4 21//4 20//4
f 24//6 17//6 18//6
f 13//6 24//6 18//6
f 25//6 20//6 13//6
f 26//1 27//1 28//1
f 26//5 29//5 30//5
f 31//4 32//4 28//4
f 28//4 33//4 26//4
f 28//1 34//1 31//1
f 30//3 35//3 27//3
f 27//3 36//3 34//3
f 34//2 37//2 31//2
f 38//3 39//3 40//3
f 41//5 38//5 40//5
f 42//2 39//2 43//2
f 44//5 45//5 46//5
f 47//2 48//2 49//2
f 49//3 46//3 45//3
f 49//6 42//6 43//6
f 38//6 49//6 43//6
f 50//6 45//6 38//6
f 51//1 52//1 53//1
f 51//2 54//2 55//2
f 56//3 57//3 53//3
f 53//3 58//3 51//3
f 53//1 59//1 56//1
f 55//4 60//4 52//4
f 52//4 61//4 59//4
f 59//5 62//5 56//5
f 63//4 64//4 65//4
f 66//2 63//2 65//2
f 67//5 64//5 68//5
f 69//2 70//2 71//2
f 72//5 73//5 74//5
f 74//4 71//4 70//4
f 74//6 67//6 68//6
f 63//6 74//6 68//6
f 75//6 70//6 63//6
f 76//1 77//1 78//1
f 76//5 79//5 80//5
f 81//4 82//4 78//4
f 78//4 83//4 76//4
f 78//1 84//1 81//1
f 80//3 85//3 77//3
f 77//3 86//3 84//3
f 84//2 87//2 81//2
f 88//3 89//3 90//3
f 91//5 88//5 90//5
f 92//2 89//2 93//2
f 94//5 95//5 96//5
f 97//2 98//2 99//2
f 99//3 96//3 95//3
f 99//6 92//6 93//6
f 88//6 99//6 93//6
f 100//6 95//6 88//6
f 1//1 5//1 2//1
f 1//2 8//2 4//2
f 6//3 12//3 7//3
f 3//3 7//3 8//3
f 3//1 2//1 9//1
f 5//4 4//4 10//4
f 2//4 10//4 11//4
f 9//5 11//5 12//5
f 13//4 18//4 14//4
f 16//2 25//2 13//2
f 17//5 101//5 14//5
f 19//2 102//2 20//2
f 22//5 103//5 23//5
f 24//4 23//4 21//4
f 24//6 22//6 17//6
f 13//6 20//6 24//6
f 25//6 102//6 20//6
f 26//1 30//1 27//1
f 26//5 33//5 29//5
f 31//4 37//4 32//4
f 28//4 32//4 33//4
f 28//1 27//1 34//1
f 30//3 29//3 35//3
f 27//3 35//3 36//3
f 34//2 36//2 37//2
f 38//3 43//3 39//3
f 41//5 50//5 38//5
f 42//2 104//2 39//2
f 44//5 105//5 45//5
f 47//2 106//2 48//2
f 49//3 48//3 46//3
f 49//6 47//6 42//6
f 38//6 45//6 49//6
f 50//6 105//6 45//6
f 51//1 55//1 52//1
f 51//2 58//2 54//2
f 56//3 62//3 57//3
f 53//3 57//3 58//3
f 53//1 52//1 59//1
f 55//4 54//4 60//4
f 52//4 60//4 61//4
f 59//5 61//5 62//5
f 63//4 68//4 64//4
f 66//2 75//2 63//2
f 67//5 107//5 64//5
f 69//2 108//2 70//2
f 72//5 109//5 73//5
f 74//4 73//4 71//4
f 74//6 72//6 67//6
f 63//6 70//6 74//6
f 75//6 108//6 70//6
f 76//1 80//1 77//1
f 76//5 83//5 79//5
f 81//4 87//4 82//4
f 78//4 82//4 83//4
f 78//1 77//1 84//1
f 80//3 79//3 85//3
f 77//3 85//3 86//3
f 84//2 86//2 87//2
f 88//3 93//3 89//3
f 91//5 100//5 88//5
f 92//2 110//2 89//2
f 94//5 111//5 95//5
f 97//2 112//2 98//2
f 99//3 98//3 96//3
f 99//6 97//6 92//6
f 88//6 95//6 99//6
f 100//6 111//6 95//6
usemtl Roof.001
f 113//7 114//7 115//7
f 116//8 115//8 117//8
f 114//3 118//3 115//3
f 119//4 120//4 113//4
f 116//4 119//4 113//4
f 118//3 117//3 115//3
f 118//1 120//1 119//1
f 118//1 116//1 117//1
f 121//8 122//8 123//8
f 124//7 123//7 125//7
f 122//4 126//4 123//4
f 127//3 128//3 121//3
f 124//3 127//3 121//3
f 126//4 125//4 123//4
f 126//1 128//1 127//1
f 126//1 124//1 125//1
f 129//7 130//7 131//7
f 132//8 131//8 133//8
f 130//3 134//3 131//3
f 135//4 136//4 129//4
f 132//4 135//4 129//4
f 134//3 133//3 131//3
f 134//1 136//1 135//1
f 134//1 132//1 133//1
f 137//8 138//8 139//8
f 140//7 139//7 141//7
f 138//4 142//4 139//4
f 143//3 144//3 137//3
f 140//3 143//3 137//3
f 142//4 141//4 139//4
f 142//1 144//1 143//1
f 142//1 140//1 141//1
f 113//7 120//7 114//7
f 116//8 113//8 115//8
f 118//1 114//1 120//1
f 118//1 119//1 116//1
f 121//8 128//8 122//8
f 124//7 121//7 123//7
f 126//1 122//1 128//1
f 126//1 127//1 124//1
f 129//7 136//7 130//7
f 132//8 129//8 131//8
f 134//1 130//1 136//1
f 134//1 135//1 132//1
f 137//8 144//8 138//8
f 140//7 137//7 139//7
f 142//1 138//1 144//1
f 142//1 143//1 140//1
usemtl Fence.001
f 145//5 146//5 147//5
f 148//2 149//2 150//2
f 151//3 147//3 149//3
f 152//4 150//4 146//4
f 153//2 154//2 155//2
f 156//5 157//5 158//5
f 155//4 159//4 156//4
f 158//3 160//3 153//3
f 152//1 157//1 148//1
f 147//6 156//6 149//6
f 150//6 153//6 146//6
f 145//1 160//1 152//1
f 151//1 157//1 159//1
f 146//6 155//6 147//6
f 149//6 158//6 150//6
f 145//1 159//1 154//1
f 161//2 162//2 163//2
f 164//5 165//5 166//5
f 167//4 163//4 165//4
f 168//3 166//3 162//3
f 169//5 170//5 171//5
f 172//2 173//2 174//2
f 171//3 175//3 172//3
f 174//4 176//4 169//4
f 164//1 176//1 173//1
f 163//6 172//6 165//6
f 166//6 169//6 162//6
f 161//1 176//1 168//1
f 164//1 175//1 167//1
f 162//6 171//6 163//6
f 166//6 172//6 174//6
f 167//1 170//1 161//1
f 177//5 178//5 179//5
f 180//2 181//2 182//2
f 183//3 179//3 181//3
f 184//4 182//4 178//4
f 185//2 186//2 187//2
f 188//5 189//5 190//5
f 187//4 191//4 188//4
f 190//3 192//3 185//3
f 184//1 189//1 180//1
f 179//6 188//6 181//6
f 182//6 185//6 178//6
f 177//1 192//1 184//1
f 180//1 191//1 183//1
f 179//6 185//6 187//6
f 182//6 188//6 190//6
f 183//1 186//1 177//1
f 193//2 194//2 195//2
f 196//5 197//5 198//5
f 199//4 195//4 197//4
f 200//3 198//3 194//3
f 201//5 202//5 203//5
f 204//2 205//2 206//2
f 203//3 207//3 204//3
f 206//4 208//4 201//4
f 200//1 205//1 196//1
f 195//6 204//6 197//6
f 198//6 201//6 194//6
f 200//1 202//1 208//1
f 196//1 207//1 199//1
f 194//6 203//6 195//6
f 198//6 204//6 206//6
f 199//1 202//1 193//1
f 145//5 152//5 146//5
f 148//2 151//2 149//2
f 151//3 145//3 147//3
f 152//4 148//4 150//4
f 153//2 160//2 154//2
f 156//5 159//5 157//5
f 155//4 154//4 159//4
f 158//3 157//3 160//3
f 152//1 160//1 157//1
f 147//6 155//6 156//6
f 150//6 158//6 153//6
f 145//1 154//1 160//1
f 151//1 148//1 157//1
f 146//6 153//6 155//6
f 149//6 156//6 158//6
f 145//1 151//1 159//1
f 161//2 168//2 162//2
f 164//5 167//5 165//5
f 167//4 161//4 163//4
f 168//3 164//3 166//3
f 169//5 176//5 170//5
f 172//2 175//2 173//2
f 171//3 170//3 175//3
f 174//4 173//4 176//4
f 164//1 168//1 176//1
f 163//6 171//6 172//6
f 166//6 174//6 169//6
f 161//1 170//1 176//1
f 164//1 173//1 175//1
f 162//6 169//6 171//6
f 166//6 165//6 172//6
f 167//1 175//1 170//1
f 177//5 184//5 178//5
f 180//2 183//2 181//2
f 183//3 177//3 179//3
f 184//4 180//4 182//4
f 185//2 192//2 186//2
f 188//5 191//5 189//5
f 187//4 186//4 191//4
f 190//3 189//3 192//3
f 184//1 192//1 189//1
f 179//6 187//6 188//6
f 182//6 190//6 185//6
f 177//1 186//1 192//1
f 180//1 189//1 191//1
f 179//6 178//6 185//6
f 182//6 181//6 188//6
f 183//1 191//1 186//1
f 193//2 200//2 194//2
f 196//5 199//5 197//5
f 199//4 193//4 195//4
f 200//3 196//3 198//3
f 201//5 208//5 202//5
f 204//2 207//2 205//2
f 203//3 202//3 207//3
f 206//4 205//4 208//4
f 200//1 208//1 205//1
f 195//6 203//6 204//6
f 198//6 206//6 201//6
f 200//1 193//1 202//1
f 196//1 205//1 207//1
f 194//6 201//6 203//6
f 198//6 197//6 204//6
f 199//1 207//1 202//1
usemtl Road.001
f 209//1 210//1 211//1
f 212//1 213//1 214//1
f 215//1 216//1 217//1
f 218//1 209//1 213//1
f 219//1 211//1 210//1
f 220//1 221//1 222//1
f 223//1 224//1 220//1
f 225//1 215//1 217//1
f 209//1 225//1 223//1
f 209//1 223//1 210//1
f 212//1 218//1 213//1
f 215//1 226//1 216//1
f 218//1 227//1 209//1
f 219//1 228//1 211//1
f 220//1 224//1 221//1
f 223//1 225//1 224//1
f 225//1 227//1 215//1
f 209//1 227//1 225//1
usemtl RoadWhite.001
f 229//6 230//6 231//6
f 232//6 233//6 234//6
f 235//6 236//6 237//6
f 238//6 239//6 240//6
f 241//6 242//6 243//6
f 244//6 245//6 246//6
f 247//6 248//6 249//6
f 250//6 251//6 252//6
f 253//6 254//6 255//6
f 256//6 257//6 258//6
f 259//6 260//6 261//6
f 262//6 263//6 264//6
f 229//6 265//6 230//6
f 232//6 266//6 233//6
f 235//6 267//6 236//6
f 238//6 268//6 239//6
f 241//6 269//6 242//6
f 244//6 270//6 245//6
f 247//6 271//6 248//6
f 250//6 272//6 251//6
f 253//6 273//6 254//6
f 256//6 274//6 257//6
f 259//6 275//6 260//6
f 262//6 276//6 263//6
